# This file uses centimeters as units for non-parametric coordinates.

mtllib InsideBend_LP.mtl
g default
v 1.563470 0.000000 -1.525467
v 1.247783 0.000000 -1.916515
v 0.935899 0.000000 -2.311330
v 1.563470 1.000000 -1.525467
v 1.247783 1.000000 -1.916515
v 0.941347 0.500000 -2.316723
v 3.000000 1.000000 -2.000000
v 3.000000 1.000000 -2.499017
v 3.000000 0.500000 -3.000000
v 3.000000 0.000000 -2.000000
v 3.000000 0.000000 -2.499017
v 3.000000 0.000000 -3.000000
v 1.000000 0.000000 0.000000
v 0.500000 0.000000 0.000000
v 0.000000 0.000000 0.000000
v 1.000000 1.000000 0.000000
v 0.500000 1.000000 0.000000
v 0.000000 0.500000 0.000000
v 2.175541 1.000000 -1.889197
v 2.175541 0.000000 -1.889197
v 2.012833 0.000000 -2.379490
v 1.852692 0.000000 -2.872324
v 1.852692 0.500000 -2.872324
v 2.012833 1.000000 -2.379490
v 1.160932 1.000000 -0.872226
v 1.160932 0.000000 -0.872226
v 0.713457 0.000000 -1.077890
v 0.252699 0.000000 -1.270401
v 0.252699 0.500000 -1.270401
v 0.713457 1.000000 -1.077890
v 2.561291 0.000000 -1.972275
v 2.561291 1.000000 -1.972275
v 2.472106 1.000000 -2.470945
v 2.384346 0.500000 -2.971027
v 2.384346 0.000000 -2.971027
v 2.472106 0.000000 -2.470945
v 1.843070 1.000000 -1.742737
v 1.843070 0.000000 -1.742737
v 1.602460 0.000000 -2.195282
v 1.370645 0.000000 -2.656536
v 1.381051 0.500000 -2.666840
v 1.602460 1.000000 -2.195282
v 1.335634 0.000000 -1.234000
v 1.335634 1.000000 -1.234000
v 0.950162 1.000000 -1.541751
v 0.557326 0.500000 -1.842211
v 0.555937 0.000000 -1.840835
v 0.950162 0.000000 -1.541751
v 1.044573 1.000000 -0.452555
v 1.044573 0.000000 -0.452555
v 0.554180 0.000000 -0.550100
v 0.063787 0.000000 -0.647645
v 0.063787 0.500000 -0.647645
v 0.554180 1.000000 -0.550100
v 2.773044 0.000000 -1.992379
v 2.773044 1.000000 -1.992379
v 2.726206 1.000000 -2.492121
v 2.679777 0.500000 -2.992268
v 2.679777 0.000000 -2.992268
v 2.726206 0.000000 -2.492121
v 2.361873 1.000000 -1.938157
v 2.361873 0.000000 -1.938157
v 2.234375 0.000000 -2.434098
v 2.109347 0.000000 -2.932485
v 2.109347 0.500000 -2.932485
v 2.234375 1.000000 -2.434098
v 2.002607 0.000000 -1.824399
v 2.002607 1.000000 -1.824399
v 1.801444 1.000000 -2.299557
v 1.611955 0.500000 -2.786274
v 1.604425 0.000000 -2.778817
v 1.801444 0.000000 -2.299557
v 1.696760 1.000000 -1.643307
v 1.696760 0.000000 -1.643307
v 1.418003 0.000000 -2.067875
v 1.149648 0.000000 -2.502742
v 1.157316 0.500000 -2.510335
v 1.418003 1.000000 -2.067875
v 1.443078 0.000000 -1.388959
v 1.443078 1.000000 -1.388959
v 1.091742 1.000000 -1.740980
v 0.741044 0.500000 -2.093632
v 0.737715 0.000000 -2.090336
v 1.091742 0.000000 -1.740980
v 1.241414 1.000000 -1.061331
v 1.241414 0.000000 -1.061331
v 0.823716 0.000000 -1.320064
v 0.391988 0.000000 -1.564905
v 0.391988 0.500000 -1.564905
v 0.823716 1.000000 -1.320064
v 1.094920 0.000000 -0.668461
v 1.094920 1.000000 -0.668461
v 0.621416 1.000000 -0.818521
v 0.142946 0.500000 -0.963663
v 0.142946 0.000000 -0.963663
v 0.621416 0.000000 -0.818521
v 1.011170 1.000000 -0.227372
v 1.011170 0.000000 -0.227372
v 0.513578 0.000000 -0.276381
v 0.015985 0.000000 -0.325389
v 0.015985 0.500000 -0.325389
v 0.513578 1.000000 -0.276381
vt 0.397397 0.515976
vt 0.306486 0.515976
vt 0.670129 0.515976
vt 0.579218 0.515976
vt 0.889606 0.515976
vt 0.798696 0.515976
vt 0.245173 0.832609
vt 0.245173 0.748325
vt 0.798695 0.988156
vt 0.980517 0.988156
vt 0.397397 0.988156
vt 0.889606 0.988156
vt 0.160661 0.916816
vt 0.076530 0.916816
vt 0.579218 0.988156
vt 0.076530 0.748325
vt 0.076530 0.832609
vt 0.670129 0.988156
vt 0.306486 0.988156
vt 0.980517 0.515976
vt 0.074569 0.045357
vt 0.161148 0.045357
vt 0.161148 0.218788
vt 0.074569 0.218788
vt 0.247454 0.045357
vt 0.247454 0.131390
vt 0.579218 0.016599
vt 0.670129 0.016599
vt 0.670129 0.488778
vt 0.579218 0.488778
vt 0.798696 0.016599
vt 0.798695 0.488778
vt 0.397397 0.488778
vt 0.306486 0.488778
vt 0.306486 0.016599
vt 0.397397 0.016599
vt 0.980517 0.488778
vt 0.889606 0.488778
vt 0.889606 0.016599
vt 0.980517 0.016599
vt 0.579218 0.752066
vt 0.397397 0.752066
vt 0.306486 0.752066
vt 0.980517 0.752066
vt 0.889606 0.752066
vt 0.798696 0.752066
vt 0.670129 0.752066
vt 0.579218 0.252689
vt 0.397397 0.252689
vt 0.306486 0.252689
vt 0.980517 0.252689
vt 0.889606 0.252689
vt 0.798696 0.252689
vt 0.670129 0.252689
vt 0.397397 0.870111
vt 0.579218 0.870111
vt 0.670129 0.870111
vt 0.798695 0.870111
vt 0.889606 0.870111
vt 0.306486 0.870111
vt 0.980517 0.870111
vt 0.579218 0.634021
vt 0.397397 0.634021
vt 0.306486 0.634021
vt 0.980517 0.634021
vt 0.889606 0.634021
vt 0.798696 0.634021
vt 0.670129 0.634021
vt 0.397397 0.370733
vt 0.579218 0.370733
vt 0.670129 0.370733
vt 0.798695 0.370733
vt 0.889606 0.370733
vt 0.306486 0.370733
vt 0.980517 0.370733
vt 0.579218 0.134644
vt 0.397397 0.134644
vt 0.306486 0.134644
vt 0.980517 0.134644
vt 0.889606 0.134644
vt 0.798696 0.134644
vt 0.670129 0.134644
vt 0.397397 0.929134
vt 0.579218 0.929134
vt 0.670129 0.929134
vt 0.798695 0.929134
vt 0.889606 0.929134
vt 0.306486 0.929134
vt 0.980517 0.929134
vt 0.579218 0.811089
vt 0.397397 0.811089
vt 0.306486 0.811089
vt 0.980517 0.811089
vt 0.889606 0.811089
vt 0.798695 0.811089
vt 0.670129 0.811089
vt 0.397397 0.693044
vt 0.579218 0.693044
vt 0.670129 0.693044
vt 0.798696 0.693044
vt 0.889606 0.693044
vt 0.306486 0.693044
vt 0.980517 0.693044
vt 0.579218 0.574999
vt 0.397397 0.574999
vt 0.306486 0.574999
vt 0.980517 0.574999
vt 0.889606 0.574999
vt 0.798696 0.574999
vt 0.670129 0.574999
vt 0.397397 0.429756
vt 0.579218 0.429756
vt 0.670129 0.429756
vt 0.798695 0.429756
vt 0.889606 0.429756
vt 0.306486 0.429756
vt 0.980517 0.429756
vt 0.579218 0.311711
vt 0.397397 0.311711
vt 0.306486 0.311711
vt 0.980517 0.311711
vt 0.889606 0.311711
vt 0.798695 0.311711
vt 0.670129 0.311711
vt 0.397397 0.193666
vt 0.579218 0.193666
vt 0.670129 0.193666
vt 0.798696 0.193666
vt 0.889606 0.193666
vt 0.306486 0.193666
vt 0.980517 0.193666
vt 0.579218 0.075621
vt 0.397397 0.075621
vt 0.306486 0.075621
vt 0.980517 0.075621
vt 0.889606 0.075621
vt 0.798696 0.075621
vt 0.670129 0.075621
vn 0.000000 1.000000 0.000000
vn 0.000000 1.000000 0.000000
vn -0.306856 0.870511 -0.384772
vn -0.317447 0.879168 -0.355375
vn -0.432753 0.713472 -0.551075
vn -0.469594 0.709309 -0.525701
vn 1.000000 0.000000 0.000000
vn 1.000000 0.000000 0.000000
vn 1.000000 0.000000 0.000000
vn 1.000000 0.000000 0.000000
vn 1.000000 0.000000 0.000000
vn 1.000000 0.000000 0.000000
vn 0.000000 -1.000000 0.000000
vn 0.000000 -1.000000 0.000000
vn 0.000000 -1.000000 0.000000
vn 0.000000 -1.000000 0.000000
vn 0.000000 -1.000000 0.000000
vn 0.000000 -1.000000 0.000000
vn -0.667314 -0.000920 -0.744776
vn -0.667314 -0.000920 -0.744776
vn -0.621730 -0.002602 -0.783228
vn -0.623025 -0.002556 -0.782198
vn 0.613595 0.000000 0.789621
vn 0.662353 0.000000 0.749192
vn 0.662353 0.000000 0.749192
vn 0.613595 0.000000 0.789621
vn 0.000000 0.000000 1.000000
vn 0.000000 0.000000 1.000000
vn 0.000000 0.000000 1.000000
vn 0.000000 0.000000 1.000000
vn 0.000000 0.000000 1.000000
vn 0.000000 0.000000 1.000000
vn 0.000000 1.000000 0.000000
vn 0.000000 1.000000 0.000000
vn -0.484656 0.873402 -0.047734
vn -0.486861 0.873152 -0.023918
vn -0.703702 0.707107 -0.069309
vn -0.706681 0.706681 -0.034717
vn 0.000000 -1.000000 0.000000
vn 0.000000 -1.000000 0.000000
vn 0.000000 -1.000000 0.000000
vn 0.000000 -1.000000 0.000000
vn 0.000000 -1.000000 0.000000
vn 0.000000 -1.000000 0.000000
vn -0.998796 0.000000 -0.049068
vn -0.998796 0.000000 -0.049068
vn -0.995185 0.000000 -0.098017
vn -0.995185 0.000000 -0.098017
vn 0.995185 0.000000 0.098017
vn 0.998796 0.000000 0.049067
vn 0.998796 0.000000 0.049067
vn 0.995185 0.000000 0.098017
vn 0.033558 0.000000 0.999437
vn 0.033558 0.000000 0.999437
vn 0.063071 0.000000 0.998009
vn 0.063071 0.000000 0.998009
vn 0.000000 -1.000000 0.000000
vn 0.000000 -1.000000 0.000000
vn 0.000000 -1.000000 0.000000
vn 0.000000 -1.000000 0.000000
vn 0.000000 -1.000000 0.000000
vn 0.000000 -1.000000 0.000000
vn -0.047009 0.000000 -0.998895
vn -0.024138 0.000000 -0.999709
vn -0.024138 0.000000 -0.999709
vn -0.047009 0.000000 -0.998895
vn -0.023718 0.877078 -0.479763
vn -0.011845 0.876641 -0.481000
vn -0.017390 0.707802 -0.706197
vn -0.035516 0.708895 -0.704420
vn 0.000000 1.000000 0.000000
vn 0.000000 1.000000 0.000000
vn 0.749990 0.000000 0.661449
vn 0.749990 0.000000 0.661449
vn 0.787857 0.000000 0.615859
vn 0.787857 0.000000 0.615859
vn 0.000000 -1.000000 0.000000
vn 0.000000 -1.000000 0.000000
vn 0.000000 -1.000000 0.000000
vn 0.000000 -1.000000 0.000000
vn 0.000000 -1.000000 0.000000
vn 0.000000 -1.000000 0.000000
vn -0.777468 0.000896 -0.628922
vn -0.744284 0.000728 -0.667863
vn -0.744284 0.000728 -0.667863
vn -0.777844 0.000898 -0.628457
vn -0.393846 0.863735 -0.314400
vn -0.390016 0.852252 -0.348647
vn -0.529376 0.704144 -0.473225
vn -0.553122 0.703488 -0.446274
vn 0.000000 1.000000 0.000000
vn 0.000000 1.000000 0.000000
vn 0.210539 0.000000 0.977586
vn 0.301868 0.000000 0.953350
vn 0.301868 0.000000 0.953350
vn 0.210539 0.000000 0.977586
vn 0.000000 1.000000 0.000000
vn 0.000000 1.000000 0.000000
vn -0.088879 0.880533 -0.465578
vn -0.136581 0.880924 -0.453121
vn -0.132436 0.716000 -0.685422
vn -0.201047 0.719826 -0.664403
vn -0.286632 -0.002193 -0.958038
vn -0.182532 0.000000 -0.983200
vn -0.182532 0.000000 -0.983200
vn -0.286632 -0.002193 -0.958038
vn 0.000000 -1.000000 0.000000
vn 0.000000 -1.000000 0.000000
vn 0.000000 -1.000000 0.000000
vn 0.000000 -1.000000 0.000000
vn 0.000000 -1.000000 0.000000
vn 0.000000 -1.000000 0.000000
vn 0.403137 0.000000 0.915139
vn 0.403137 0.000000 0.915139
vn 0.000000 -1.000000 0.000000
vn 0.000000 -1.000000 0.000000
vn 0.000000 -1.000000 0.000000
vn -0.403323 -0.005939 -0.915039
vn -0.404794 -0.005977 -0.914388
vn -0.192369 0.880288 -0.433691
vn -0.279075 0.721506 -0.633677
vn 0.000000 1.000000 0.000000
vn 0.900501 0.000000 0.434854
vn 0.936980 0.000000 0.349383
vn 0.936980 0.000000 0.349383
vn 0.900501 0.000000 0.434854
vn 0.000000 1.000000 0.000000
vn 0.000000 1.000000 0.000000
vn -0.444455 0.865289 -0.231809
vn -0.458694 0.868564 -0.187605
vn -0.629162 0.704068 -0.329307
vn -0.655395 0.706031 -0.268287
vn -0.923880 0.000000 -0.382683
vn -0.882779 0.000244 -0.469788
vn -0.882779 0.000244 -0.469788
vn -0.923880 0.000000 -0.382683
vn 0.000000 -1.000000 0.000000
vn 0.000000 -1.000000 0.000000
vn 0.000000 -1.000000 0.000000
vn 0.000000 -1.000000 0.000000
vn 0.000000 -1.000000 0.000000
vn 0.000000 -1.000000 0.000000
vn 0.963646 0.000000 0.267184
vn 0.963646 0.000000 0.267184
vn 0.000000 -1.000000 0.000000
vn 0.000000 -1.000000 0.000000
vn 0.000000 -1.000000 0.000000
vn -0.956940 0.000000 -0.290285
vn -0.956940 0.000000 -0.290285
vn -0.470345 0.870930 -0.142325
vn -0.676926 0.706969 -0.204857
vn 0.000000 1.000000 0.000000
vn 0.130741 0.000000 0.991417
vn 0.130741 0.000000 0.991417
vn 0.000000 1.000000 0.000000
vn -0.052206 0.878750 -0.474418
vn -0.078161 0.711936 -0.697881
vn -0.104233 0.000000 -0.994553
vn -0.104233 0.000000 -0.994553
vn 0.000000 -1.000000 0.000000
vn 0.000000 -1.000000 0.000000
vn 0.000000 -1.000000 0.000000
vn 0.509490 0.000000 0.860477
vn 0.509490 0.000000 0.860477
vn 0.000000 1.000000 0.000000
vn -0.250779 0.876343 -0.411259
vn -0.358077 0.719183 -0.595446
vn -0.517875 -0.005921 -0.855436
vn -0.519880 -0.005864 -0.854219
vn 0.000000 -1.000000 0.000000
vn 0.000000 -1.000000 0.000000
vn 0.000000 -1.000000 0.000000
vn 0.851604 0.000000 0.524185
vn 0.851604 0.000000 0.524185
vn 0.000000 1.000000 0.000000
vn -0.423601 0.863357 -0.274184
vn -0.596137 0.702547 -0.388651
vn -0.834897 0.000770 -0.550406
vn -0.835022 0.000769 -0.550216
vn 0.000000 -1.000000 0.000000
vn 0.000000 -1.000000 0.000000
vn 0.000000 -1.000000 0.000000
vn 0.982448 0.000000 0.186539
vn 0.982448 0.000000 0.186539
vn 0.000000 1.000000 0.000000
vn -0.478893 0.872690 -0.095258
vn -0.693520 0.707107 -0.137950
vn -0.980785 0.000000 -0.195090
vn -0.980785 0.000000 -0.195090
vn 0.000000 -1.000000 0.000000
vn 0.000000 -1.000000 0.000000
vn 0.000000 -1.000000 0.000000
s 1
g InsideBend
usemtl initialShadingGroup
f 4/4/1 73/104/2 78/110/3 5/3/4
f 5/3/4 78/110/3 77/109/5 6/6/6
s 2
f 7/8/7 10/16/8 11/17/9 8/7/10
f 8/7/10 11/17/9 12/14/11 9/13/12
s 3
f 74/105/13 1/1/14 2/2/15 75/106/16
f 75/107/16 2/20/15 3/5/17 76/108/18
s 4
f 3/5/19 6/6/20 77/109/21 76/108/22
s 5
f 73/104/23 4/4/24 1/1/25 74/105/26
s 6
f 13/21/27 16/24/28 17/23/29 14/22/30
f 14/22/30 17/23/29 18/26/31 15/25/32
s 7
f 16/27/33 97/132/34 102/138/35 17/28/36
f 17/28/36 102/138/35 101/137/37 18/31/38
s 8
f 98/133/39 13/36/40 14/35/41 99/134/42
f 99/135/42 14/40/41 15/39/43 100/136/44
s 9
f 15/39/45 18/31/46 101/137/47 100/136/48
s 10
f 97/132/49 16/27/50 13/36/51 98/133/52
s 5
f 10/11/53 7/15/54 56/84/55 55/83/56
s 3
f 10/11/57 55/83/58 60/88/59 11/19/60
f 11/10/60 60/89/59 59/87/61 12/12/62
s 4
f 58/86/63 9/9/64 12/12/65 59/87/66
s 1
f 57/85/67 8/18/68 9/9/69 58/86/70
f 56/84/71 7/15/72 8/18/68 57/85/67
s 10
f 1/33/73 4/30/74 80/112/75 79/111/76
s 8
f 1/33/77 79/111/78 84/116/79 2/34/80
f 2/37/80 84/117/79 83/115/81 3/38/82
s 9
f 82/114/83 6/32/84 3/38/85 83/115/86
s 7
f 81/113/87 5/29/88 6/32/89 82/114/90
f 80/112/91 4/30/92 5/29/88 81/113/87
s 5
f 61/90/93 19/41/94 20/42/95 62/91/96
s 1
f 19/41/97 61/90/98 66/96/99 24/47/100
f 24/47/100 66/96/99 65/95/101 23/46/102
s 4
f 23/46/103 65/95/104 64/94/105 22/45/106
s 3
f 63/93/107 21/44/108 22/45/109 64/94/110
f 62/91/111 20/42/112 21/43/108 63/92/107
s 5
f 19/41/94 68/98/113 67/97/114 20/42/95
s 3
f 20/42/112 67/97/115 72/102/116 21/43/108
f 21/44/108 72/103/116 71/101/117 22/45/109
s 4
f 70/100/118 23/46/103 22/45/106 71/101/119
s 1
f 69/99/120 24/47/100 23/46/102 70/100/121
f 68/98/122 19/41/97 24/47/100 69/99/120
s 10
f 85/118/123 25/48/124 26/49/125 86/119/126
s 7
f 25/48/127 85/118/128 90/124/129 30/54/130
f 30/54/130 90/124/129 89/123/131 29/53/132
s 9
f 29/53/133 89/123/134 88/122/135 28/52/136
s 8
f 87/121/137 27/51/138 28/52/139 88/122/140
f 86/119/141 26/49/142 27/50/138 87/120/137
s 10
f 25/48/124 92/126/143 91/125/144 26/49/125
s 8
f 26/49/142 91/125/145 96/130/146 27/50/138
f 27/51/138 96/131/146 95/129/147 28/52/139
s 9
f 94/128/148 29/53/133 28/52/136 95/129/149
s 7
f 93/127/150 30/54/130 29/53/132 94/128/151
f 92/126/152 25/48/127 30/54/130 93/127/150
s 5
f 56/84/55 32/56/153 31/55/154 55/83/56
s 1
f 32/56/155 56/84/71 57/85/67 33/57/156
f 33/57/156 57/85/67 58/86/70 34/58/157
s 4
f 34/58/158 58/86/63 59/87/66 35/59/159
s 3
f 60/89/59 36/61/160 35/59/161 59/87/61
f 55/83/58 31/55/162 36/60/160 60/88/59
s 5
f 32/56/153 61/90/93 62/91/96 31/55/154
s 3
f 31/55/162 62/91/111 63/92/107 36/60/160
f 36/61/160 63/93/107 64/94/110 35/59/161
s 4
f 65/95/104 34/58/158 35/59/159 64/94/105
s 1
f 66/96/99 33/57/156 34/58/157 65/95/101
f 61/90/98 32/56/155 33/57/156 66/96/99
s 5
f 68/98/113 37/62/163 38/63/164 67/97/114
s 1
f 37/62/165 68/98/122 69/99/120 42/68/166
f 42/68/166 69/99/120 70/100/121 41/67/167
s 4
f 41/67/168 70/100/118 71/101/119 40/66/169
s 3
f 72/103/116 39/65/170 40/66/171 71/101/117
f 67/97/115 38/63/172 39/64/170 72/102/116
s 5
f 37/62/163 73/104/23 74/105/26 38/63/164
s 3
f 38/63/172 74/105/13 75/106/16 39/64/170
f 39/65/170 75/107/16 76/108/18 40/66/171
s 4
f 77/109/21 41/67/168 40/66/169 76/108/22
s 1
f 78/110/3 42/68/166 41/67/167 77/109/5
f 73/104/2 37/62/165 42/68/166 78/110/3
s 10
f 80/112/75 44/70/173 43/69/174 79/111/76
s 7
f 44/70/175 80/112/91 81/113/87 45/71/176
f 45/71/176 81/113/87 82/114/90 46/72/177
s 9
f 46/72/178 82/114/83 83/115/86 47/73/179
s 8
f 84/117/79 48/75/180 47/73/181 83/115/81
f 79/111/78 43/69/182 48/74/180 84/116/79
s 10
f 44/70/173 85/118/123 86/119/126 43/69/174
s 8
f 43/69/182 86/119/141 87/120/137 48/74/180
f 48/75/180 87/121/137 88/122/140 47/73/181
s 9
f 89/123/134 46/72/178 47/73/179 88/122/135
s 7
f 90/124/129 45/71/176 46/72/177 89/123/131
f 85/118/128 44/70/175 45/71/176 90/124/129
s 10
f 92/126/143 49/76/183 50/77/184 91/125/144
s 7
f 49/76/185 92/126/152 93/127/150 54/82/186
f 54/82/186 93/127/150 94/128/151 53/81/187
s 9
f 53/81/188 94/128/148 95/129/149 52/80/189
s 8
f 96/131/146 51/79/190 52/80/191 95/129/147
f 91/125/145 50/77/192 51/78/190 96/130/146
s 10
f 49/76/183 97/132/49 98/133/52 50/77/184
s 8
f 50/77/192 98/133/39 99/134/42 51/78/190
f 51/79/190 99/135/42 100/136/44 52/80/191
s 9
f 101/137/47 53/81/188 52/80/189 100/136/48
s 7
f 102/138/35 54/82/186 53/81/187 101/137/37
f 97/132/34 49/76/185 54/82/186 102/138/35
