# This file uses centimeters as units for non-parametric coordinates.

mtllib JumpPad_LP.mtl
g default
v 0.545899 0.064556 -0.000000
v 0.396619 0.064556 -0.000000
v 0.208515 0.064556 -0.000000
v -0.000000 0.064556 -0.000000
v -0.208515 0.064556 -0.000000
v -0.396619 0.064556 -0.000000
v -0.545899 0.064556 -0.000000
v 0.809017 0.000000 -0.000000
v 0.587785 0.000000 -0.000000
v 0.309017 0.000000 -0.000000
v -0.000000 0.000000 -0.000000
v -0.309017 0.000000 -0.000000
v -0.587785 0.000000 -0.000000
v -0.809017 0.000000 -0.000000
v 0.922652 0.000000 -0.299788
v 0.928079 0.004681 -0.301551
v 0.924757 0.011144 -0.300472
v 0.786645 0.011144 -0.571531
v 0.789471 0.004681 -0.573584
v 0.784855 0.000000 -0.570230
v 0.571531 0.011144 -0.786645
v 0.573584 0.004681 -0.789471
v 0.570230 0.000000 -0.784855
v 0.300472 0.011144 -0.924757
v 0.301551 0.004681 -0.928079
v 0.299788 0.000000 -0.922652
v -0.000000 0.011144 -0.972347
v -0.000000 0.004681 -0.975840
v 0.000000 0.000000 -0.970134
v -0.300472 0.011144 -0.924757
v -0.301551 0.004681 -0.928079
v -0.299788 0.000000 -0.922652
v -0.571531 0.011144 -0.786645
v -0.573584 0.004681 -0.789471
v -0.570230 0.000000 -0.784855
v -0.786645 0.011144 -0.571531
v -0.789471 0.004681 -0.573584
v -0.784854 0.000000 -0.570230
v -0.922652 0.000000 -0.299788
v -0.928078 0.004681 -0.301551
v -0.924757 0.011144 -0.300472
v -0.972347 0.011144 -0.000000
v -0.975839 0.004681 -0.000000
v -0.970133 0.000000 0.000000
v -0.922652 0.000000 0.299788
v -0.928078 0.004681 0.301551
v -0.924757 0.011144 0.300472
v -0.786645 0.011144 0.571531
v -0.789471 0.004681 0.573584
v -0.784854 0.000000 0.570230
v -0.571531 0.011144 0.786645
v -0.573584 0.004681 0.789471
v -0.570230 0.000000 0.784854
v -0.300472 0.011144 0.924757
v -0.301551 0.004681 0.928078
v -0.299788 0.000000 0.922652
v -0.000000 0.011144 0.972347
v -0.000000 0.004681 0.975839
v -0.000000 0.000000 0.970133
v 0.300472 0.011144 0.924757
v 0.301551 0.004681 0.928078
v 0.299788 0.000000 0.922652
v 0.571531 0.011144 0.786645
v 0.573584 0.004681 0.789470
v 0.570230 0.000000 0.784854
v 0.786645 0.011144 0.571531
v 0.789470 0.004681 0.573584
v 0.784854 0.000000 0.570230
v 0.922652 0.000000 0.299788
v 0.928078 0.004681 0.301551
v 0.924757 0.011144 0.300472
v 0.972347 0.011144 -0.000000
v 0.975839 0.004681 -0.000000
v 0.970133 0.000000 -0.000000
v 0.636171 0.064556 -0.206705
v 0.641639 0.064004 -0.208481
v 0.646902 0.062370 -0.210191
v 0.550288 0.062370 -0.399808
v 0.545811 0.064004 -0.396555
v 0.541159 0.064556 -0.393175
v 0.399807 0.062370 -0.550288
v 0.396554 0.064004 -0.545811
v 0.393175 0.064556 -0.541160
v 0.210191 0.062370 -0.646902
v 0.208481 0.064004 -0.641639
v 0.206704 0.064556 -0.636171
v -0.000000 0.062370 -0.680193
v -0.000000 0.064004 -0.674659
v -0.000000 0.064556 -0.668910
v -0.210191 0.062370 -0.646902
v -0.208481 0.064004 -0.641639
v -0.206705 0.064556 -0.636171
v -0.399807 0.062370 -0.550288
v -0.396555 0.064004 -0.545811
v -0.393175 0.064556 -0.541159
v -0.550288 0.062370 -0.399807
v -0.545811 0.064004 -0.396555
v -0.541159 0.064556 -0.393175
v -0.636171 0.064556 -0.206705
v -0.641639 0.064004 -0.208481
v -0.646902 0.062370 -0.210191
v -0.680193 0.062370 -0.000000
v -0.674659 0.064004 -0.000000
v -0.668909 0.064556 -0.000000
v -0.636171 0.064556 0.206704
v -0.641639 0.064004 0.208481
v -0.646902 0.062370 0.210191
v -0.550288 0.062370 0.399807
v -0.545811 0.064004 0.396554
v -0.541159 0.064556 0.393175
v -0.399807 0.062370 0.550288
v -0.396554 0.064004 0.545810
v -0.393175 0.064556 0.541159
v -0.210191 0.062370 0.646902
v -0.208481 0.064004 0.641638
v -0.206704 0.064556 0.636171
v -0.000000 0.062370 0.680193
v -0.000000 0.064004 0.674658
v -0.000000 0.064556 0.668909
v 0.210191 0.062370 0.646902
v 0.208481 0.064004 0.641638
v 0.206704 0.064556 0.636171
v 0.399807 0.062370 0.550288
v 0.396554 0.064004 0.545810
v 0.393175 0.064556 0.541159
v 0.550288 0.062370 0.399807
v 0.545810 0.064004 0.396554
v 0.541159 0.064556 0.393175
v 0.636171 0.064556 0.206704
v 0.641638 0.064004 0.208481
v 0.646902 0.062370 0.210191
v 0.680193 0.062370 -0.000000
v 0.674658 0.064004 -0.000000
v 0.668909 0.064556 -0.000000
vt 0.413990 0.627261
vt 0.412344 0.626986
vt 0.412344 0.557703
vt 0.413990 0.558226
vt 0.413990 0.703787
vt 0.412344 0.703787
vt 0.411152 0.627435
vt 0.411152 0.558557
vt 0.412344 0.502719
vt 0.413990 0.503439
vt 0.413990 0.780314
vt 0.412344 0.780589
vt 0.411152 0.703787
vt 0.413990 0.849349
vt 0.412344 0.849872
vt 0.411152 0.780140
vt 0.413990 0.904136
vt 0.412344 0.904856
vt 0.411152 0.849018
vt 0.405527 0.780314
vt 0.403881 0.780589
vt 0.403881 0.703787
vt 0.405527 0.703787
vt 0.405527 0.849349
vt 0.403881 0.849872
vt 0.402689 0.780140
vt 0.402689 0.703787
vt 0.403881 0.626986
vt 0.405527 0.627261
vt 0.405527 0.904136
vt 0.403881 0.904856
vt 0.402689 0.849018
vt 0.402689 0.627435
vt 0.403881 0.557703
vt 0.405527 0.558226
vt 0.402689 0.558557
vt 0.403881 0.502719
vt 0.405527 0.503439
vt 0.832017 0.803897
vt 0.830676 0.803461
vt 0.839086 0.750364
vt 0.840495 0.750364
vt 0.807410 0.852189
vt 0.806270 0.851361
vt 0.829284 0.803009
vt 0.837622 0.750364
vt 0.830676 0.697266
vt 0.832017 0.696830
vt 0.914903 0.750364
vt 0.902783 0.826890
vt 0.867608 0.895925
vt 0.769085 0.890515
vt 0.768256 0.889375
vt 0.805085 0.850500
vt 0.806293 0.750364
vt 0.829284 0.697719
vt 0.806270 0.649366
vt 0.807410 0.648538
vt 0.902783 0.673837
vt 0.812821 0.950712
vt 0.720792 0.915121
vt 0.720356 0.913781
vt 0.767396 0.888190
vt 0.768273 0.750364
vt 0.805085 0.650227
vt 0.768256 0.611353
vt 0.769085 0.610212
vt 0.867607 0.604802
vt 0.743785 0.985888
vt 0.667259 0.923600
vt 0.667259 0.922191
vt 0.719904 0.912388
vt 0.767396 0.612537
vt 0.720365 0.750364
vt 0.720356 0.586946
vt 0.720792 0.585606
vt 0.812821 0.550015
vt 0.667259 0.998008
vt 0.613726 0.915121
vt 0.614161 0.913781
vt 0.667259 0.920726
vt 0.719904 0.588339
vt 0.667259 0.750364
vt 0.667259 0.578537
vt 0.667259 0.577127
vt 0.743785 0.514840
vt 0.590733 0.985888
vt 0.565433 0.890515
vt 0.566262 0.889375
vt 0.614614 0.912388
vt 0.667259 0.580001
vt 0.614153 0.750364
vt 0.614161 0.586946
vt 0.613726 0.585606
vt 0.667259 0.502719
vt 0.521697 0.950712
vt 0.527108 0.852189
vt 0.528248 0.851361
vt 0.567122 0.888190
vt 0.614614 0.588339
vt 0.566245 0.750364
vt 0.566262 0.611352
vt 0.565433 0.610212
vt 0.590733 0.514840
vt 0.466910 0.895925
vt 0.502501 0.803897
vt 0.503842 0.803461
vt 0.529432 0.850500
vt 0.567122 0.612537
vt 0.528225 0.750364
vt 0.528248 0.649366
vt 0.527108 0.648538
vt 0.521697 0.550015
vt 0.431735 0.826890
vt 0.494022 0.750364
vt 0.495432 0.750364
vt 0.505234 0.803009
vt 0.529432 0.650227
vt 0.496896 0.750364
vt 0.503842 0.697266
vt 0.502501 0.696830
vt 0.466910 0.604802
vt 0.419614 0.750364
vt 0.505234 0.697719
vt 0.431735 0.673837
vt 0.495988 0.250526
vt 0.454953 0.250526
vt 0.448800 0.105296
vt 0.483895 0.174174
vt 0.483895 0.326878
vt 0.448799 0.395756
vt 0.398608 0.250526
vt 0.394137 0.050633
vt 0.394137 0.450419
vt 0.327610 0.250526
vt 0.325259 0.015538
vt 0.449975 0.104441
vt 0.394992 0.049458
vt 0.394991 0.451594
vt 0.449975 0.396611
vt 0.325259 0.485514
vt 0.248907 0.250526
vt 0.248907 0.003445
vt 0.325708 0.014156
vt 0.325708 0.486896
vt 0.248907 0.497607
vt 0.170204 0.250526
vt 0.172555 0.015538
vt 0.248907 0.001992
vt 0.248907 0.499060
vt 0.172555 0.485514
vt 0.099205 0.250526
vt 0.103676 0.050634
vt 0.172106 0.014156
vt 0.172106 0.486896
vt 0.103676 0.450419
vt 0.042860 0.250526
vt 0.049014 0.105296
vt 0.102822 0.049458
vt 0.102822 0.451594
vt 0.049014 0.395756
vt 0.001826 0.250526
vt 0.013919 0.174174
vt 0.047839 0.104441
vt 0.047839 0.396611
vt 0.013919 0.326878
vt 0.395418 0.503242
vt 0.397064 0.502719
vt 0.397064 0.572002
vt 0.395418 0.572277
vt 0.397064 0.648804
vt 0.395418 0.648804
vt 0.397064 0.725605
vt 0.395418 0.725330
vt 0.397064 0.794888
vt 0.395418 0.794366
vt 0.389794 0.794365
vt 0.388148 0.794888
vt 0.388148 0.725605
vt 0.389794 0.725330
vt 0.388148 0.648804
vt 0.389794 0.648804
vt 0.388148 0.572002
vt 0.389794 0.572277
vt 0.388148 0.502719
vt 0.389794 0.503242
vn 0.836706 0.475410 -0.271861
vn 0.836706 0.475410 -0.271861
vn 0.711745 0.475408 -0.517113
vn 0.711746 0.475408 -0.517113
vn 0.603211 -0.773126 -0.195994
vn 0.603211 -0.773126 -0.195995
vn 0.513127 -0.773120 -0.372808
vn 0.513127 -0.773120 -0.372809
vn -0.836709 0.475402 -0.271863
vn -0.836710 0.475402 -0.271863
vn -0.879768 0.475402 -0.000000
vn -0.879768 0.475402 -0.000000
vn -0.603218 -0.773119 -0.195998
vn -0.603218 -0.773119 -0.195997
vn -0.634261 -0.773119 -0.000000
vn -0.634261 -0.773119 -0.000000
vn -0.836708 0.475405 0.271863
vn -0.836708 0.475405 0.271863
vn -0.711746 0.475405 0.517114
vn -0.711747 0.475405 0.517114
vn -0.603217 -0.773120 0.195997
vn -0.603217 -0.773120 0.195997
vn -0.513128 -0.773119 0.372809
vn -0.513128 -0.773119 0.372810
vn 0.836710 0.475403 0.271863
vn 0.836710 0.475403 0.271863
vn 0.879766 0.475408 0.000000
vn 0.879766 0.475408 0.000001
vn 0.603220 -0.773118 0.195998
vn 0.603220 -0.773118 0.195998
vn 0.634258 -0.773122 0.000001
vn 0.634258 -0.773122 0.000001
vn 0.165626 0.984719 -0.053815
vn 0.190043 0.979832 -0.061748
vn 0.199823 0.979832 0.000000
vn 0.174149 0.984719 0.000000
vn 0.004105 0.999991 -0.001334
vn 0.004317 0.999991 -0.000000
vn -0.001758 0.999998 -0.001277
vn -0.161661 0.979832 -0.117453
vn -0.190044 0.979832 -0.061749
vn -0.004105 0.999991 -0.001334
vn -0.140890 0.984719 -0.102362
vn -0.165626 0.984719 -0.053815
vn -0.004317 0.999991 0.000000
vn -0.199823 0.979832 -0.000000
vn -0.190043 0.979832 0.061749
vn -0.004105 0.999991 0.001334
vn -0.174149 0.984719 0.000000
vn -0.165626 0.984719 0.053815
vn 0.001758 0.999998 0.001277
vn 0.161661 0.979832 0.117453
vn 0.190043 0.979832 0.061749
vn 0.004105 0.999991 0.001334
vn 0.140890 0.984719 0.102362
vn 0.165626 0.984719 0.053815
vn 0.164250 0.984974 -0.053368
vn 0.139719 0.984974 -0.101512
vn 0.140890 0.984719 -0.102362
vn 0.101512 0.984974 -0.139719
vn 0.102362 0.984719 -0.140890
vn 0.053368 0.984974 -0.164250
vn 0.053815 0.984719 -0.165626
vn 0.000000 0.984974 -0.172702
vn -0.000000 0.984719 -0.174149
vn -0.053368 0.984974 -0.164250
vn -0.053815 0.984719 -0.165626
vn -0.101512 0.984974 -0.139719
vn -0.102362 0.984719 -0.140890
vn -0.139719 0.984974 -0.101512
vn -0.164250 0.984974 -0.053368
vn -0.172702 0.984974 0.000000
vn -0.164250 0.984974 0.053368
vn -0.139719 0.984974 0.101512
vn -0.140890 0.984719 0.102362
vn -0.101512 0.984974 0.139719
vn -0.102362 0.984719 0.140890
vn -0.053368 0.984974 0.164250
vn -0.053815 0.984719 0.165626
vn 0.000000 0.984974 0.172702
vn 0.000000 0.984719 0.174149
vn 0.053368 0.984974 0.164250
vn 0.053815 0.984719 0.165626
vn 0.101512 0.984974 0.139719
vn 0.102362 0.984719 0.140890
vn 0.139719 0.984974 0.101512
vn 0.164250 0.984974 0.053368
vn 0.172702 0.984974 0.000000
vn 0.000000 -1.000000 0.000000
vn 0.000000 -1.000000 0.000000
vn 0.000000 -1.000000 0.000000
vn 0.000000 -1.000000 0.000000
vn -0.001758 0.999998 0.001277
vn 0.000000 1.000000 0.000000
vn 0.000340 0.999999 0.001047
vn 0.000000 1.000000 0.000000
vn 0.000000 1.000000 -0.000000
vn -0.000000 1.000000 0.001022
vn -0.000820 0.999999 0.001128
vn 0.000000 1.000000 0.000000
vn 0.000000 1.000000 -0.000000
vn -0.000340 0.999999 0.001047
vn 0.000820 0.999999 0.001128
vn 0.000000 1.000000 0.000000
vn 0.000000 1.000000 -0.000000
vn 0.001758 0.999998 -0.001277
vn 0.000820 0.999999 -0.001128
vn 0.000340 0.999999 -0.001047
vn 0.000000 1.000000 -0.001022
vn -0.000340 0.999999 -0.001047
vn -0.000820 0.999999 -0.001128
vn 0.000000 -1.000000 0.000000
vn 0.000000 -1.000000 0.000000
vn 0.000000 -1.000000 0.000000
vn 0.000000 -1.000000 0.000000
vn 0.000000 -1.000000 0.000000
vn 0.000000 -1.000000 0.000000
vn 0.000000 -1.000000 0.000000
vn 0.000000 -1.000000 0.000000
vn 0.000000 -1.000000 0.000000
vn 0.000000 -1.000000 0.000000
vn 0.000000 -1.000000 0.000000
vn 0.000000 -1.000000 0.000000
vn 0.000000 -1.000000 0.000000
vn 0.000000 -1.000000 0.000000
vn 0.000000 -1.000000 0.000000
vn 0.000000 -1.000000 0.000000
vn 0.000000 -1.000000 0.000000
vn 0.000000 -1.000000 0.000000
vn 0.000000 -1.000000 0.000000
vn 0.000000 -1.000000 0.000000
vn 0.000000 -1.000000 0.000000
vn 0.000000 -1.000000 0.000000
vn 0.000000 -1.000000 0.000000
vn 0.517115 0.475404 -0.711747
vn 0.517114 0.475404 -0.711747
vn 0.372809 -0.773118 -0.513129
vn 0.372810 -0.773118 -0.513128
vn 0.271864 0.475400 -0.836711
vn 0.271863 0.475400 -0.836711
vn 0.195998 -0.773118 -0.603219
vn 0.195998 -0.773118 -0.603219
vn -0.000000 0.475402 -0.879769
vn -0.000000 0.475402 -0.879769
vn 0.000000 -0.773119 -0.634261
vn -0.000000 -0.773119 -0.634261
vn -0.271863 0.475403 -0.836709
vn -0.271863 0.475403 -0.836709
vn -0.195997 -0.773119 -0.603218
vn -0.195998 -0.773119 -0.603218
vn -0.517114 0.475406 -0.711746
vn -0.517114 0.475406 -0.711746
vn -0.372809 -0.773119 -0.513128
vn -0.372810 -0.773119 -0.513128
vn -0.711746 0.475405 -0.517114
vn -0.711747 0.475405 -0.517114
vn -0.513128 -0.773119 -0.372809
vn -0.513128 -0.773119 -0.372809
vn -0.517115 0.475403 0.711747
vn -0.517115 0.475403 0.711748
vn -0.372810 -0.773117 0.513129
vn -0.372810 -0.773117 0.513130
vn -0.271863 0.475404 0.836709
vn -0.271863 0.475404 0.836709
vn -0.195997 -0.773119 0.603218
vn -0.195998 -0.773119 0.603218
vn 0.000000 0.475403 0.879768
vn 0.000000 0.475403 0.879768
vn 0.000000 -0.773119 0.634261
vn 0.000000 -0.773119 0.634261
vn 0.271863 0.475403 0.836709
vn 0.271864 0.475403 0.836709
vn 0.195997 -0.773119 0.603218
vn 0.195998 -0.773119 0.603218
vn 0.517115 0.475403 0.711747
vn 0.517115 0.475403 0.711748
vn 0.372809 -0.773119 0.513128
vn 0.372809 -0.773119 0.513128
vn 0.711747 0.475403 0.517115
vn 0.711748 0.475403 0.517115
vn 0.513127 -0.773120 0.372808
vn 0.513126 -0.773120 0.372809
vn 0.161661 0.979832 -0.117453
vn 0.117453 0.979832 -0.161661
vn 0.061749 0.979832 -0.190044
vn 0.000000 0.979832 -0.199824
vn -0.061749 0.979832 -0.190044
vn -0.117453 0.979832 -0.161661
vn -0.161661 0.979832 0.117453
vn -0.117453 0.979832 0.161661
vn -0.061749 0.979832 0.190044
vn -0.000000 0.979832 0.199824
vn 0.061749 0.979832 0.190044
vn 0.117453 0.979832 0.161660
s 1
g BoostPad_LP
usemtl initialShadingGroup
f 17/1/1 16/2/2 19/3/3 18/4/4
s 2
f 16/2/5 15/7/6 20/8/7 19/3/8
s 1
f 41/20/9 40/21/10 43/22/11 42/23/12
s 2
f 40/21/13 39/26/14 44/27/15 43/22/16
s 1
f 47/29/17 46/28/18 49/34/19 48/35/20
s 2
f 46/28/21 45/33/22 50/36/23 49/34/24
s 1
f 71/11/25 70/12/26 73/6/27 72/5/28
s 2
f 70/12/29 69/16/30 74/13/31 73/6/32
s 7
f 77/39/33 76/40/34 133/41/35 132/42/36
f 76/40/34 75/45/37 134/46/38 133/41/35
f 98/108/39 97/98/40 100/107/41 99/117/42
f 97/98/40 96/97/43 101/106/44 100/107/41
f 104/119/45 103/116/46 106/120/47 105/124/48
f 103/116/46 102/115/49 107/121/50 106/120/47
f 128/65/51 127/57/52 130/47/53 129/56/54
f 127/57/52 126/58/55 131/48/56 130/47/53
f 17/50/57 18/51/58 78/43/59 77/39/33
f 18/51/58 21/60/60 81/52/61 78/43/59
f 21/60/60 24/69/62 84/61/63 81/52/61
f 24/69/62 27/78/64 87/70/65 84/61/63
f 27/78/64 30/87/66 90/79/67 87/70/65
f 30/87/66 33/96/68 93/88/69 90/79/67
f 33/96/68 36/105/70 96/97/43 93/88/69
f 36/105/70 41/114/71 101/106/44 96/97/43
f 41/114/71 42/123/72 102/115/49 101/106/44
f 42/123/72 47/125/73 107/121/50 102/115/49
f 47/125/73 48/122/74 108/112/75 107/121/50
f 48/122/74 51/113/76 111/103/77 108/112/75
f 51/113/76 54/104/78 114/94/79 111/103/77
f 54/104/78 57/95/80 117/85/81 114/94/79
f 57/95/80 60/86/82 120/76/83 117/85/81
f 60/86/82 63/77/84 123/67/85 120/76/83
f 63/77/84 66/68/86 126/58/55 123/67/85
f 66/68/86 71/59/87 131/48/56 126/58/55
f 71/59/87 72/49/88 132/42/36 131/48/56
f 72/49/88 17/50/57 77/39/33 132/42/36
s 11
f 74/126/89 8/127/90 20/128/91 15/129/92
s 7
f 110/118/93 7/110/94 104/119/45 105/124/48
f 122/82/95 3/74/96 4/83/97 119/91/98
f 113/109/99 6/101/100 7/110/94 110/118/93
f 119/91/98 4/83/97 5/92/101 116/100/102
f 116/100/102 5/92/101 6/101/100 113/109/99
f 125/73/103 2/64/104 3/74/96 122/82/95
f 134/46/38 1/55/105 128/65/51 129/56/54
f 128/65/51 1/55/105 2/64/104 125/73/103
f 134/46/38 75/45/37 80/54/106 1/55/105
f 2/64/104 1/55/105 80/54/106 83/63/107
f 3/74/96 2/64/104 83/63/107 86/72/108
f 4/83/97 3/74/96 86/72/108 89/81/109
f 5/92/101 4/83/97 89/81/109 92/90/110
f 6/101/100 5/92/101 92/90/110 95/99/111
f 7/110/94 6/101/100 95/99/111 98/108/39
f 104/119/45 7/110/94 98/108/39 99/117/42
s 11
f 29/143/112 11/142/113 12/147/114 32/148/115
f 26/136/116 10/135/117 11/142/113 29/143/112
f 23/133/118 9/132/119 10/135/117 26/136/116
f 20/128/91 8/127/90 9/132/119 23/133/118
f 69/130/120 68/131/121 8/127/90 74/126/89
f 9/132/119 8/127/90 68/131/121 65/134/122
f 10/135/117 9/132/119 65/134/122 62/141/123
f 11/142/113 10/135/117 62/141/123 59/146/124
f 56/151/125 12/147/114 11/142/113 59/146/124
f 53/156/126 13/152/127 12/147/114 56/151/125
f 32/148/115 12/147/114 13/152/127 35/153/128
f 50/161/129 14/157/130 13/152/127 53/156/126
f 35/153/128 13/152/127 14/157/130 38/158/131
f 44/162/132 14/157/130 50/161/129 45/166/133
f 38/158/131 14/157/130 44/162/132 39/163/134
s 1
f 18/4/4 19/3/3 22/9/135 21/10/136
s 2
f 19/137/8 20/128/7 23/133/137 22/138/138
s 1
f 21/167/136 22/168/135 25/169/139 24/170/140
s 2
f 22/138/138 23/133/137 26/136/141 25/144/142
s 1
f 24/170/140 25/169/139 28/171/143 27/172/144
s 2
f 25/144/142 26/136/141 29/143/145 28/149/146
s 1
f 27/172/144 28/171/143 31/173/147 30/174/148
s 2
f 28/149/146 29/143/145 32/148/149 31/154/150
s 1
f 30/174/148 31/173/147 34/175/151 33/176/152
s 2
f 31/154/150 32/148/149 35/153/153 34/159/154
s 1
f 33/30/152 34/31/151 37/25/155 36/24/156
s 2
f 34/159/154 35/153/153 38/158/157 37/164/158
s 1
f 36/24/156 37/25/155 40/21/10 41/20/9
s 2
f 37/25/158 38/32/157 39/26/14 40/21/13
s 1
f 42/23/12 43/22/11 46/28/18 47/29/17
s 2
f 43/22/16 44/27/15 45/33/22 46/28/21
s 1
f 48/35/20 49/34/19 52/37/159 51/38/160
s 2
f 49/165/24 50/161/23 53/156/161 52/160/162
s 1
f 51/177/160 52/178/159 55/179/163 54/180/164
s 2
f 52/160/162 53/156/161 56/151/165 55/155/166
s 1
f 54/180/164 55/179/163 58/181/167 57/182/168
s 2
f 55/155/166 56/151/165 59/146/169 58/150/170
s 1
f 57/182/168 58/181/167 61/183/171 60/184/172
s 2
f 58/150/170 59/146/169 62/141/173 61/145/174
s 1
f 60/184/172 61/183/171 64/185/175 63/186/176
s 2
f 61/145/174 62/141/173 65/134/177 64/139/178
s 1
f 63/17/176 64/18/175 67/15/179 66/14/180
s 2
f 64/139/178 65/134/177 68/131/181 67/140/182
s 1
f 66/14/180 67/15/179 70/12/26 71/11/25
s 2
f 67/15/182 68/19/181 69/16/30 70/12/29
f 15/7/6 16/2/5 73/6/32 74/13/31
s 1
f 16/2/2 17/1/1 72/5/28 73/6/27
s 7
f 75/45/37 76/40/34 79/44/183 80/54/106
f 76/40/34 77/39/33 78/43/59 79/44/183
f 80/54/106 79/44/183 82/53/184 83/63/107
f 79/44/183 78/43/59 81/52/61 82/53/184
f 83/63/107 82/53/184 85/62/185 86/72/108
f 82/53/184 81/52/61 84/61/63 85/62/185
f 86/72/108 85/62/185 88/71/186 89/81/109
f 85/62/185 84/61/63 87/70/65 88/71/186
f 89/81/109 88/71/186 91/80/187 92/90/110
f 88/71/186 87/70/65 90/79/67 91/80/187
f 92/90/110 91/80/187 94/89/188 95/99/111
f 91/80/187 90/79/67 93/88/69 94/89/188
f 95/99/111 94/89/188 97/98/40 98/108/39
f 94/89/188 93/88/69 96/97/43 97/98/40
f 99/117/42 100/107/41 103/116/46 104/119/45
f 100/107/41 101/106/44 102/115/49 103/116/46
f 105/124/48 106/120/47 109/111/189 110/118/93
f 106/120/47 107/121/50 108/112/75 109/111/189
f 110/118/93 109/111/189 112/102/190 113/109/99
f 109/111/189 108/112/75 111/103/77 112/102/190
f 113/109/99 112/102/190 115/93/191 116/100/102
f 112/102/190 111/103/77 114/94/79 115/93/191
f 116/100/102 115/93/191 118/84/192 119/91/98
f 115/93/191 114/94/79 117/85/81 118/84/192
f 119/91/98 118/84/192 121/75/193 122/82/95
f 118/84/192 117/85/81 120/76/83 121/75/193
f 122/82/95 121/75/193 124/66/194 125/73/103
f 121/75/193 120/76/83 123/67/85 124/66/194
f 125/73/103 124/66/194 127/57/52 128/65/51
f 124/66/194 123/67/85 126/58/55 127/57/52
f 129/56/54 130/47/53 133/41/35 134/46/38
f 130/47/53 131/48/56 132/42/36 133/41/35
