# This file uses centimeters as units for non-parametric coordinates.

mtllib OutsideCorner_HP.mtl
g default
v -2.611831 0.008125 -3.963491
v -2.620193 0.027747 -3.972253
v -2.612234 0.027458 -3.991874
v -2.593016 0.027177 -4.000000
v -2.583846 0.007955 -3.991701
v -2.562183 0.000000 -3.971155
v -2.582805 0.000000 -3.962799
v -2.591349 0.000000 -3.942629
v -2.117154 0.000000 -3.472184
v -2.137159 0.000000 -3.492295
v -2.128866 0.000000 -3.512345
v -2.108877 0.000000 -3.520646
v -2.088954 0.000000 -3.500619
v -2.069032 0.000000 -3.480593
v -2.088904 0.000000 -3.472243
v -2.097148 0.000000 -3.452073
v -1.628619 0.008211 -2.980147
v -1.648771 0.000000 -3.000106
v -1.640370 0.000000 -3.020447
v -1.620086 0.000000 -3.028871
v -1.600262 0.008211 -3.008519
v -1.592164 0.028029 -3.000000
v -1.611984 0.028031 -2.991789
v -1.620193 0.028034 -2.971966
v -2.611818 0.991874 -3.963504
v -2.591348 1.000000 -3.942629
v -2.582495 1.000000 -3.962425
v -2.561123 1.000000 -3.970628
v -2.583135 0.991878 -3.991532
v -2.592446 0.972253 -4.000000
v -2.612066 0.972255 -3.991873
v -2.620193 0.972253 -3.972253
v -2.119260 0.996069 -3.474114
v -2.101873 0.984626 -3.458647
v -2.093301 0.984152 -3.476758
v -2.072623 0.983656 -3.484255
v -2.089356 0.995825 -3.502297
v -2.108198 1.000000 -3.522293
v -2.129843 1.000000 -3.513308
v -2.138822 1.000000 -3.491603
v -1.624466 0.498717 -2.976431
v -1.620193 0.478752 -2.972220
v -1.612215 0.478955 -2.991864
v -1.592951 0.479147 -3.000000
v -1.596967 0.498903 -3.004332
v -1.608340 0.516119 -3.016139
v -1.628088 0.516148 -3.007965
v -1.636267 0.516173 -2.988226
v 1.371513 0.971684 -3.991706
v 1.351490 0.971683 -4.000000
v 1.351489 0.991706 -3.991706
v 1.351490 1.000000 -3.971683
v 1.371513 0.991706 -3.971685
v 1.379807 0.971683 -3.971683
v 1.379807 0.962382 -3.499736
v 1.379807 0.971530 -3.520131
v 1.371549 0.991668 -3.520868
v 1.351589 1.000000 -3.521602
v 1.351687 0.996057 -3.501675
v 1.351773 0.984829 -3.484834
v 1.371676 0.971522 -3.482539
v 1.379807 0.939247 -3.479750
v 1.371791 0.479137 -3.009343
v 1.379807 0.488794 -3.027053
v 1.371791 0.508142 -3.021354
v 1.351092 0.515540 -3.015540
v 1.351082 0.498327 -3.004039
v 1.351092 0.478023 -3.000000
v 1.351490 0.008294 -3.991706
v 1.351490 0.028317 -4.000000
v 1.371513 0.028319 -3.991706
v 1.379807 0.028317 -3.971683
v 1.371513 0.008294 -3.971684
v 1.351490 0.000000 -3.971683
v 1.351490 0.000000 -3.500005
v 1.351490 0.000000 -3.520028
v 1.371513 0.008294 -3.520024
v 1.379807 0.028317 -3.520023
v 1.379807 0.028317 -3.500000
v 1.379807 0.028317 -3.479977
v 1.371513 0.008294 -3.479980
v 1.351490 0.000000 -3.479982
v 1.351495 0.008294 -3.008294
v 1.351490 0.000000 -3.028317
v 1.371513 0.008294 -3.028332
v 1.379807 0.028317 -3.028317
v 1.371513 0.028318 -3.008294
v 1.351490 0.028317 -3.000000
v -2.611899 0.008294 -0.028317
v -2.591876 0.000000 -0.028317
v -2.591877 0.008294 -0.008294
v -2.591876 0.028317 0.000000
v -2.611899 0.028318 -0.008294
v -2.620193 0.028317 -0.028317
v -2.120168 0.000000 -0.028317
v -2.100145 0.000000 -0.028317
v -2.100164 0.008294 -0.008294
v -2.100170 0.028317 0.000000
v -2.120193 0.028317 0.000000
v -2.140216 0.028317 0.000000
v -2.140209 0.008294 -0.008294
v -2.140191 0.000000 -0.028317
v -1.628487 0.008294 -0.028307
v -1.620193 0.028317 -0.028317
v -1.628487 0.028318 -0.008294
v -1.648510 0.028317 0.000000
v -1.648526 0.008294 -0.008294
v -1.648510 0.000000 -0.028317
v -2.611899 0.991706 -0.028320
v -2.620193 0.971683 -0.028317
v -2.611899 0.971682 -0.008294
v -2.591876 0.971683 0.000000
v -2.591877 0.991706 -0.008294
v -2.591876 1.000000 -0.028317
v -2.121818 0.996057 -0.028061
v -2.141690 1.000000 -0.028119
v -2.140963 0.991710 -0.008229
v -2.140224 0.971671 0.000000
v -2.119888 0.962481 0.000000
v -2.099942 0.939260 0.000000
v -2.102721 0.971523 -0.008128
v -2.104997 0.984829 -0.028024
v -1.624288 0.498304 -0.029131
v -1.635949 0.515756 -0.029112
v -1.641661 0.508276 -0.008152
v -1.647246 0.488794 0.000000
v -1.629521 0.478964 -0.008153
v -1.620193 0.477718 -0.029112
v -2.603620 0.008041 -3.983404
v -2.108885 0.000000 -3.492294
v -1.620301 0.008211 -3.000198
v -2.603414 0.991875 -3.983281
v -2.110415 0.995946 -3.493956
v -1.616408 0.498791 -2.996146
v 1.367833 0.988026 -3.988027
v 1.371589 0.986240 -3.500702
v 1.368086 0.496039 -3.009558
v 1.367833 0.011975 -3.988026
v 1.371513 0.008294 -3.500002
v 1.367831 0.011975 -3.011967
v -2.608219 0.011974 -0.011974
v -2.120187 0.008294 -0.008294
v -1.632160 0.011975 -0.011973
v -2.608219 0.988026 -0.011975
v -2.120853 0.986269 -0.008199
v -1.629786 0.496024 -0.011913
vt 0.387466 0.485503
vt 0.387362 0.517118
vt 0.377170 0.517328
vt 0.295155 0.517265
vt 0.976880 0.517720
vt 0.894850 0.517795
vt 0.884510 0.518322
vt 0.559197 0.485503
vt 0.576660 0.629710
vt 0.257373 0.779147
vt 0.677694 0.559857
vt 0.685943 0.554753
vt 0.151782 0.709330
vt 0.789894 0.481896
vt 0.802487 0.518198
vt 0.387570 0.982747
vt 0.257609 0.211329
vt 0.160013 0.211315
vt 0.152037 0.211300
vt 0.050152 0.211399
vt 0.802691 0.981570
vt 0.884457 0.981633
vt 0.295151 0.982266
vt 0.081305 0.800240
vt 0.081305 0.876374
vt 0.894755 0.981633
vt 0.081297 0.883122
vt 0.081294 0.959188
vt 0.377277 0.020418
vt 0.295151 0.020418
vt 0.559093 0.019941
vt 0.079472 0.026734
vt 0.976871 0.021056
vt 0.894755 0.021056
vt 0.164604 0.026707
vt 0.884457 0.021056
vt 0.802747 0.021181
vt 0.677053 0.023449
vt 0.079472 0.190343
vt 0.157679 0.190341
vt 0.789967 0.023603
vt 0.164644 0.184692
vt 0.242785 0.105950
vt 0.160035 0.714415
vt 0.050278 0.642996
vt 0.240398 0.800240
vt 0.240372 0.876356
vt 0.234920 0.883160
vt 0.158781 0.959401
vt 0.377271 0.982266
vt 0.976877 0.981633
vt 0.559197 0.517186
vt 0.559093 0.982747
vt 0.157681 0.026734
vt 0.242566 0.026695
vt 0.576542 0.023479
vt 0.685243 0.023434
vt 0.377208 0.485387
vt 0.295130 0.485449
vt 0.976857 0.484948
vt 0.894830 0.484913
vt 0.884509 0.484366
vt 0.802559 0.484406
vt 0.387570 0.019941
vt 0.382427 0.486131
vt 0.386618 0.513910
vt 0.386618 0.488778
vt 0.382421 0.516531
vt 0.378466 0.488778
vt 0.378466 0.513910
vt 0.291510 0.485834
vt 0.980517 0.485834
vt 0.295196 0.513910
vt 0.295196 0.488778
vt 0.980517 0.516838
vt 0.291510 0.516838
vt 0.976812 0.488778
vt 0.976812 0.513910
vt 0.889649 0.483744
vt 0.893489 0.513910
vt 0.893489 0.488778
vt 0.889647 0.518945
vt 0.885365 0.488778
vt 0.885365 0.513910
vt 0.570220 0.635245
vt 0.564242 0.486225
vt 0.258978 0.784491
vt 0.575164 0.635191
vt 0.564242 0.516512
vt 0.263750 0.784457
vt 0.560003 0.488778
vt 0.560003 0.513910
vt 0.681724 0.557157
vt 0.151926 0.713535
vt 0.686015 0.558823
vt 0.156034 0.711719
vt 0.678064 0.564335
vt 0.159648 0.718624
vt 0.798695 0.485411
vt 0.793485 0.480407
vt 0.802503 0.513910
vt 0.802503 0.488778
vt 0.046778 0.641671
vt 0.798696 0.517244
vt 0.790387 0.485885
vt 0.049809 0.646744
vt 0.561052 0.986090
vt 0.242215 0.795466
vt 0.263750 0.209716
vt 0.564242 0.984052
vt 0.245173 0.798423
vt 0.259947 0.207211
vt 0.238897 0.879788
vt 0.159961 0.207211
vt 0.245173 0.876149
vt 0.156013 0.211303
vt 0.242328 0.882585
vt 0.151675 0.207211
vt 0.157661 0.963957
vt 0.801937 0.986090
vt 0.049483 0.207211
vt 0.162766 0.961859
vt 0.798695 0.983241
vt 0.046778 0.209851
vt 0.382436 0.982510
vt 0.079488 0.795466
vt 0.385611 0.986090
vt 0.379231 0.986090
vt 0.076530 0.798423
vt 0.291510 0.983152
vt 0.980517 0.983152
vt 0.076530 0.876298
vt 0.295234 0.986090
vt 0.081279 0.879748
vt 0.976793 0.986090
vt 0.076530 0.883199
vt 0.889609 0.981640
vt 0.076530 0.960999
vt 0.892800 0.986090
vt 0.886393 0.986090
vt 0.079503 0.963957
vt 0.382415 0.020176
vt 0.077607 0.021823
vt 0.379231 0.016599
vt 0.385611 0.016599
vt 0.074569 0.024866
vt 0.980517 0.019533
vt 0.291510 0.019533
vt 0.164683 0.021823
vt 0.976793 0.016599
vt 0.161142 0.026699
vt 0.295234 0.016599
vt 0.157602 0.021823
vt 0.889605 0.021044
vt 0.247454 0.024863
vt 0.886393 0.016599
vt 0.892800 0.016599
vt 0.244422 0.021823
vt 0.564242 0.018637
vt 0.570220 0.021768
vt 0.074569 0.192211
vt 0.561052 0.016599
vt 0.574137 0.019094
vt 0.077606 0.195254
vt 0.681147 0.023437
vt 0.157459 0.195254
vt 0.677096 0.019094
vt 0.161188 0.188791
vt 0.685610 0.019094
vt 0.164053 0.192312
vt 0.793485 0.021928
vt 0.798696 0.019479
vt 0.245283 0.110055
vt 0.790677 0.019094
vt 0.801969 0.016599
vt 0.247454 0.104759
vt 0.382421 0.513910
vt 0.382421 0.488778
vt 0.291510 0.513910
vt 0.980517 0.513910
vt 0.980517 0.488778
vt 0.291510 0.488778
vt 0.889606 0.513910
vt 0.889606 0.488778
vt 0.263750 0.787655
vt 0.564242 0.513910
vt 0.564242 0.488778
vt 0.570220 0.638595
vt 0.155330 0.715761
vt 0.682537 0.561254
vt 0.798696 0.513910
vt 0.046778 0.644761
vt 0.793485 0.483720
vt 0.798695 0.488778
vt 0.564242 0.986090
vt 0.263750 0.207211
vt 0.245173 0.795466
vt 0.155330 0.207211
vt 0.245173 0.879750
vt 0.160661 0.963957
vt 0.046778 0.207211
vt 0.798695 0.986090
vt 0.382421 0.986090
vt 0.076530 0.795466
vt 0.076530 0.879750
vt 0.980517 0.986090
vt 0.291510 0.986090
vt 0.889606 0.986090
vt 0.076530 0.963957
vt 0.382421 0.016599
vt 0.074569 0.021823
vt 0.161148 0.021823
vt 0.291510 0.016599
vt 0.980517 0.016599
vt 0.889606 0.016599
vt 0.247454 0.021823
vt 0.564242 0.016599
vt 0.074569 0.195254
vt 0.570220 0.019094
vt 0.161148 0.195254
vt 0.681853 0.019094
vt 0.793485 0.019094
vt 0.247454 0.107857
vt 0.798696 0.016599
vn -0.999976 -0.006562 -0.002063
vn -0.921721 -0.387850 -0.001246
vn -0.922007 -0.387170 0.001334
vn -0.999961 -0.008615 0.002077
vn -0.373879 -0.927476 -0.001854
vn -0.049076 -0.998795 -0.000053
vn -0.018367 -0.999829 0.002189
vn -0.375547 -0.926802 0.001281
vn -0.002053 -0.006417 -0.999977
vn -0.386030 0.000152 -0.922486
vn -0.385895 0.010607 -0.922482
vn -0.002067 0.006488 -0.999977
vn -0.925270 -0.010229 -0.379171
vn -0.999976 0.006572 -0.002047
vn -0.925174 0.010311 -0.379404
vn -0.000050 -0.998774 -0.049493
vn -0.001906 -0.929053 -0.369942
vn 0.001304 -0.928344 -0.371720
vn 0.002201 -0.999831 -0.018261
vn -0.001208 -0.389946 -0.920837
vn 0.002077 -0.008580 -0.999961
vn 0.001389 -0.389245 -0.921133
vn -0.013665 -0.999815 -0.013566
vn 0.000000 -1.000000 0.000000
vn 0.000000 -1.000000 0.000000
vn 0.000000 -1.000000 0.000000
vn 0.000000 -1.000000 0.000000
vn 0.000000 -0.999997 0.002394
vn 0.000000 -0.999997 0.002233
vn 0.000000 -1.000000 0.000000
vn 0.000000 -0.999997 0.002580
vn 0.000000 -1.000000 0.000000
vn 0.000000 -1.000000 0.000000
vn 0.002397 -0.999997 0.000000
vn 0.002571 -0.999997 0.000000
vn 0.002247 -0.999997 0.000000
vn 0.000000 -1.000000 0.000000
vn 0.005398 -0.999971 0.005409
vn 0.005941 -0.999982 0.000038
vn 0.000038 -0.999982 0.005992
vn 0.379533 -0.925178 0.000539
vn 0.379834 -0.925053 0.001708
vn 0.016283 -0.999864 0.002554
vn 0.921540 -0.388267 0.003712
vn 0.999761 -0.021708 0.002695
vn 0.999838 -0.017779 0.002930
vn 0.922199 -0.386713 0.001737
vn 0.002716 -0.021754 0.999760
vn 0.003673 -0.390132 0.920752
vn 0.001721 -0.388576 0.921415
vn 0.002927 -0.017851 0.999836
vn 0.000518 -0.925837 0.377922
vn 0.002546 -0.999865 0.016233
vn 0.001676 -0.925708 0.378236
vn 0.924821 -0.025927 0.379519
vn 0.925130 0.013009 0.379427
vn 0.999946 0.010018 0.002728
vn 0.385619 -0.025989 0.922292
vn 0.002730 0.009992 0.999946
vn 0.385886 0.012837 0.922457
vn -0.049358 0.998781 -0.000057
vn -0.373923 0.927458 -0.001938
vn -0.375656 0.926758 0.001280
vn -0.018425 0.999828 0.002190
vn -0.921609 0.388119 -0.001299
vn -0.999961 0.008621 0.002077
vn -0.921902 0.387421 0.001332
vn -0.000056 0.998741 -0.050156
vn -0.012924 0.999822 -0.013741
vn 0.002636 0.999993 0.002637
vn 0.000017 0.999996 0.002944
vn 0.002941 0.999996 0.000019
vn -0.001256 0.389910 -0.920852
vn 0.001320 0.389214 -0.921146
vn 0.002076 0.008665 -0.999960
vn -0.001929 0.928876 -0.370387
vn 0.002205 0.999826 -0.018512
vn 0.001240 0.928177 -0.372138
vn 0.696307 0.717735 0.003582
vn 0.304841 0.952402 0.001227
vn 0.382869 0.923799 0.002755
vn 0.703511 0.710680 0.002235
vn 0.007859 0.999967 0.002290
vn 0.003283 0.718796 0.695213
vn 0.404227 0.820596 0.404009
vn 0.405462 0.813691 0.416543
vn 0.000999 0.705936 0.708275
vn 0.709489 0.704715 0.001392
vn 0.000934 0.951577 0.307409
vn 0.002302 0.921480 0.388420
vn 0.002299 0.999964 0.008152
vn 0.001824 0.711789 0.702391
vn 0.904545 0.426372 0.002172
vn 0.921300 0.388846 0.002235
vn 0.999956 0.008866 0.003028
vn 0.711930 0.702244 0.003039
vn 0.002185 0.428221 0.903672
vn 0.002224 0.391520 0.920167
vn 0.002645 0.703522 0.710669
vn 0.003024 0.008872 0.999956
vn 0.382084 0.005345 -0.924112
vn 0.382084 -0.005344 -0.924112
vn 0.924113 0.005345 -0.382082
vn 0.999812 0.008462 -0.017464
vn 0.999812 -0.008485 -0.017460
vn 0.924113 -0.005344 -0.382081
vn 0.924979 0.379861 -0.010924
vn 0.924939 0.380087 0.004763
vn 0.999963 0.008599 0.000169
vn 0.382662 0.923823 -0.011034
vn 0.385026 0.922851 0.010038
vn 0.999908 0.010718 0.008293
vn 0.999962 -0.008688 0.000000
vn 0.999963 -0.008609 0.000000
vn 0.999213 0.028060 0.028043
vn 0.999933 -0.011571 0.000000
vn 0.921727 0.274543 0.273945
vn 0.921727 0.272161 0.276313
vn 0.999921 0.005593 0.011294
vn 0.388422 0.652418 0.650753
vn 0.387973 0.648439 0.654984
vn 0.917014 0.003962 0.398835
vn 0.918641 -0.011848 0.394916
vn 0.999864 -0.011732 0.011614
vn 0.396473 0.005979 0.918027
vn 0.395720 -0.009654 0.918320
vn 0.381437 -0.924330 -0.010978
vn 0.382685 -0.923879 0.000000
vn 0.924330 -0.381436 -0.010978
vn 0.923879 -0.382686 0.000000
vn 0.382684 -0.923879 0.000000
vn 0.381441 -0.924328 0.010966
vn 0.923877 -0.382690 0.000000
vn 0.924327 -0.381445 0.010970
vn -0.017458 -0.008483 0.999812
vn -0.010978 -0.381435 0.924331
vn -0.000000 -0.382683 0.923880
vn -0.000000 -0.008610 0.999963
vn -0.010977 -0.924330 0.381435
vn 0.000000 -0.923880 0.382683
vn -0.924113 -0.005344 0.382082
vn -0.924113 0.005345 0.382082
vn -0.382083 -0.005344 0.924113
vn -0.017460 0.008445 0.999812
vn -0.382083 0.005345 0.924112
vn -0.000000 -0.011569 0.999933
vn -0.000000 -0.382683 0.923880
vn 0.010967 -0.381437 0.924330
vn 0.011707 -0.011727 0.999863
vn 0.000000 -0.923879 0.382684
vn 0.010964 -0.924328 0.381441
vn -0.000000 -0.008697 0.999962
vn 0.008334 0.010689 0.999908
vn 0.000168 0.008587 0.999963
vn 0.028280 0.028281 0.999200
vn 0.397520 -0.011702 0.917519
vn 0.401625 0.004166 0.915795
vn 0.011344 0.005616 0.999920
vn 0.919321 -0.009391 0.393397
vn 0.919110 0.006352 0.393950
vn -0.011147 0.923922 0.382418
vn 0.009972 0.922961 0.384766
vn -0.011051 0.380077 0.924889
vn 0.004678 0.380322 0.924842
vn 0.651530 0.652897 0.386309
vn 0.655840 0.648901 0.385747
vn 0.275894 0.276169 0.920659
vn 0.278376 0.274016 0.920555
vn -0.188459 -0.964359 -0.185729
vn -0.806309 -0.494133 -0.325113
vn -0.339785 -0.501670 -0.795533
vn -0.339785 -0.501670 -0.795533
vn 0.000000 -1.000000 0.000000
vn 0.809274 -0.482204 0.335491
vn 0.196103 -0.960916 0.195407
vn 0.335235 -0.484038 0.808285
vn -0.800774 0.495886 -0.335942
vn -0.183345 0.964214 -0.191511
vn -0.329085 0.499081 -0.801637
vn 0.178516 0.966766 0.183018
vn 0.794184 0.512458 0.326587
vn 0.330500 0.513192 0.792088
vn 0.887910 0.325277 -0.325287
vn 0.325256 0.325276 -0.887921
vn 0.325240 0.887922 -0.325290
vn 0.926479 0.329559 0.181735
vn 0.397778 0.818941 0.413652
vn 0.376127 0.354542 0.856054
vn 0.850283 0.201376 0.486279
vn 0.325279 -0.887909 -0.325287
vn 0.325266 -0.325261 -0.887923
vn 0.887925 -0.325234 -0.325288
vn 0.382684 -0.923879 0.000000
vn 0.923878 -0.382687 0.000000
vn 0.325194 -0.325088 0.888013
vn 0.325418 -0.887932 0.325084
vn 0.887929 -0.325368 0.325143
vn -0.887921 -0.325261 0.325273
vn -0.325283 -0.887914 0.325270
vn -0.325283 -0.325259 0.887918
vn 0.000000 -0.923880 0.382683
vn -0.000000 -0.382683 0.923880
vn 0.325026 -0.887943 0.325447
vn 0.888023 -0.325039 0.325217
vn 0.325092 -0.325335 0.887960
vn -0.325312 0.887908 0.325257
vn -0.887915 0.325286 0.325262
vn -0.325305 0.325282 0.887901
vn 0.415404 0.818256 0.397361
vn 0.183188 0.329732 0.926131
vn 0.858038 0.355372 0.370785
vn 0.492704 0.204043 0.845937
s 1
g OutsideCorner_HP
usemtl initialShadingGroup
f 2/1/1 1/65/2 89/142/3 94/64/4
s 2
f 1/65/5 8/58/6 90/29/7 89/142/8
s 3
f 4/2/9 3/66/10 31/92/11 30/52/12
s 1
f 3/67/13 2/1/1 32/8/14 31/91/15
s 2
f 6/3/16 5/68/17 69/125/18 74/50/19
s 3
f 5/68/20 4/2/9 70/16/21 69/125/22
s 2
f 8/58/6 7/69/23 11/74/24 10/59/25
f 7/70/23 6/3/16 12/4/26 11/73/24
f 10/59/25 9/71/27 95/148/28 102/30/29
f 9/72/27 16/60/30 96/33/31 95/147/28
f 14/5/32 13/75/33 75/131/34 82/51/35
f 13/76/33 12/4/26 76/23/36 75/130/34
f 16/60/30 15/77/37 19/81/38 18/61/39
f 15/78/37 14/5/32 20/6/40 19/80/38
f 18/61/39 17/79/41 103/154/42 108/34/43
s 7
f 17/79/44 24/62/45 104/36/46 103/154/47
f 22/7/48 21/82/49 83/137/50 88/22/51
s 2
f 21/82/52 20/6/40 84/26/53 83/137/54
s 7
f 24/62/45 23/83/55 43/102/56 42/63/57
f 23/84/58 22/7/48 44/15/59 43/101/60
f 26/9/61 25/85/62 109/160/63 114/56/64
s 1
f 25/86/65 32/8/14 110/31/66 109/159/67
s 7
f 28/10/68 27/87/69 39/98/70 38/44/71
f 27/88/69 26/9/61 40/11/72 39/97/70
s 3
f 30/52/12 29/89/73 51/110/74 50/53/75
s 7
f 29/90/76 28/10/68 52/17/77 51/109/78
f 34/12/79 33/93/80 115/165/81 122/57/82
f 33/93/80 40/11/72 116/38/83 115/165/81
f 36/13/84 35/94/85 47/106/86 46/45/87
f 35/95/85 34/12/79 48/14/88 47/105/86
f 38/44/71 37/96/89 59/116/90 58/18/91
f 37/96/89 36/13/84 60/19/92 59/116/90
f 42/63/57 41/99/93 123/172/94 128/37/95
f 41/100/93 48/14/88 124/41/96 123/171/94
f 46/45/87 45/103/97 67/124/98 66/20/99
f 45/104/97 44/15/59 68/21/100 67/123/98
s 3
f 50/53/75 49/107/101 71/127/102 70/16/21
s 13
f 49/108/103 54/46/104 72/24/105 71/126/106
f 54/46/104 53/111/107 57/115/108 56/47/109
s 7
f 53/112/110 52/17/77 58/18/91 57/114/111
s 13
f 56/47/109 55/113/112 79/134/113 78/25/114
f 55/113/112 62/48/115 80/27/116 79/134/113
f 62/48/115 61/117/117 65/122/118 64/49/119
s 7
f 61/118/120 60/19/92 66/20/99 65/121/121
s 13
f 64/49/119 63/119/122 87/141/123 86/28/124
s 7
f 63/120/125 68/21/100 88/22/51 87/140/126
s 2
f 74/50/19 73/128/127 77/133/128 76/23/36
s 13
f 73/129/129 72/24/105 78/25/114 77/132/130
s 2
f 82/51/35 81/135/131 85/139/132 84/26/53
s 13
f 81/136/133 80/27/116 86/28/124 85/138/134
s 14
f 92/32/135 91/143/136 101/153/137 100/54/138
s 2
f 91/144/139 90/29/7 102/30/29 101/152/140
s 1
f 94/64/4 93/145/141 111/162/142 110/31/66
s 14
f 93/146/143 92/32/135 112/39/144 111/161/145
f 98/35/146 97/149/147 107/158/148 106/55/149
s 2
f 97/150/150 96/33/31 108/34/43 107/157/151
s 14
f 100/54/138 99/151/152 119/168/153 118/40/154
f 99/151/152 98/35/146 120/42/155 119/168/153
f 106/55/149 105/155/156 127/176/157 126/43/158
s 7
f 105/156/159 104/36/46 128/37/95 127/175/160
f 114/56/64 113/163/161 117/167/162 116/38/83
s 14
f 113/164/163 112/39/144 118/40/154 117/166/164
s 7
f 122/57/82 121/169/165 125/174/166 124/41/96
s 14
f 121/170/167 120/42/155 126/43/158 125/173/168
s 7
f 28/10/68 38/44/71 58/18/91 52/17/77
f 36/13/84 46/45/87 66/20/99 60/19/92
s 13
f 54/46/104 56/47/109 78/25/114 72/24/105
f 62/48/115 64/49/119 86/28/124 80/27/116
s 2
f 74/50/19 76/23/36 12/4/26 6/3/16
f 82/51/35 84/26/53 20/6/40 14/5/32
s 7
f 22/7/48 88/22/51 68/21/100 44/15/59
s 3
f 70/16/21 4/2/9 30/52/12 50/53/75
s 14
f 92/32/135 100/54/138 118/40/154 112/39/144
f 98/35/146 106/55/149 126/43/158 120/42/155
s 7
f 114/56/64 116/38/83 40/11/72 26/9/61
f 122/57/82 124/41/96 48/14/88 34/12/79
s 2
f 8/58/6 10/59/25 102/30/29 90/29/7
f 16/60/30 18/61/39 108/34/43 96/33/31
s 7
f 104/36/46 24/62/45 42/63/57 128/37/95
s 1
f 2/1/1 94/64/4 110/31/66 32/8/14
s 2
f 7/69/23 8/58/6 1/65/5 129/178/169
s 1
f 1/65/2 2/1/1 3/67/13 129/178/170
s 3
f 3/66/171 4/2/9 5/68/20 129/177/172
s 2
f 5/68/17 6/3/16 7/70/23 129/177/169
f 15/77/37 16/60/30 9/72/27 130/181/173
f 9/71/27 10/59/25 11/74/24 130/182/173
f 11/73/24 12/4/26 13/76/33 130/179/173
f 13/75/33 14/5/32 15/78/37 130/180/173
s 7
f 23/83/55 24/62/45 17/79/44 131/184/174
s 2
f 17/79/41 18/61/39 19/81/38 131/184/175
f 19/80/38 20/6/40 21/82/52 131/183/175
s 7
f 21/82/49 22/7/48 23/84/58 131/183/176
s 1
f 31/91/15 32/8/14 25/86/65 132/187/177
s 7
f 25/85/62 26/9/61 27/88/69 132/188/178
f 27/87/69 28/10/68 29/90/76 132/185/178
s 3
f 29/89/73 30/52/12 31/92/11 132/186/179
s 7
f 39/97/70 40/11/72 33/93/80 133/190/180
f 33/93/80 34/12/79 35/95/85 133/190/180
f 35/94/85 36/13/84 37/96/89 133/189/180
f 37/96/89 38/44/71 39/98/70 133/189/180
f 47/105/86 48/14/88 41/100/93 134/193/181
f 41/99/93 42/63/57 43/102/56 134/194/181
f 43/101/60 44/15/59 45/104/97 134/191/182
f 45/103/97 46/45/87 47/106/86 134/192/182
s 13
f 53/111/107 54/46/104 49/108/103 135/197/183
s 3
f 49/107/101 50/53/75 51/110/74 135/195/184
s 7
f 51/109/78 52/17/77 53/112/110 135/196/185
s 13
f 61/117/117 62/48/115 55/113/112 136/199/186
f 55/113/112 56/47/109 57/115/108 136/199/186
s 7
f 57/114/111 58/18/91 59/116/90 136/198/187
f 59/116/90 60/19/92 61/118/120 136/198/187
f 67/123/98 68/21/100 63/120/125 137/202/188
s 13
f 63/119/122 64/49/119 65/122/118 137/200/189
s 7
f 65/121/121 66/20/99 67/124/98 137/201/188
s 2
f 73/128/127 74/50/19 69/125/18 138/203/190
s 3
f 69/125/22 70/16/21 71/127/102 138/203/191
s 13
f 71/126/106 72/24/105 73/129/129 138/204/192
s 2
f 81/135/131 82/51/35 75/131/34 139/206/193
f 75/130/34 76/23/36 77/133/128 139/207/193
s 13
f 77/132/130 78/25/114 79/134/113 139/205/194
f 79/134/113 80/27/116 81/136/133 139/205/194
s 7
f 87/140/126 88/22/51 83/137/50 140/208/195
s 2
f 83/137/54 84/26/53 85/139/132 140/208/196
s 13
f 85/138/134 86/28/124 87/141/123 140/209/197
s 1
f 93/145/141 94/64/4 89/142/3 141/210/198
s 2
f 89/142/8 90/29/7 91/144/139 141/210/199
s 14
f 91/143/136 92/32/135 93/146/143 141/211/200
s 2
f 101/152/140 102/30/29 95/148/28 142/213/201
f 95/147/28 96/33/31 97/150/150 142/214/201
s 14
f 97/149/147 98/35/146 99/151/152 142/212/202
f 99/151/152 100/54/138 101/153/137 142/212/202
s 2
f 107/157/151 108/34/43 103/154/42 143/215/203
s 7
f 103/154/47 104/36/46 105/156/159 143/215/204
s 14
f 105/155/156 106/55/149 107/158/148 143/216/205
s 7
f 113/163/161 114/56/64 109/160/63 144/219/206
s 1
f 109/159/67 110/31/66 111/162/142 144/217/207
s 14
f 111/161/145 112/39/144 113/164/163 144/218/208
s 7
f 121/169/165 122/57/82 115/165/81 145/221/209
f 115/165/81 116/38/83 117/167/162 145/221/209
s 14
f 117/166/164 118/40/154 119/168/153 145/220/210
f 119/168/153 120/42/155 121/170/167 145/220/210
s 7
f 127/175/160 128/37/95 123/172/94 146/224/211
f 123/171/94 124/41/96 125/174/166 146/222/211
s 14
f 125/173/168 126/43/158 127/176/157 146/223/212
