# This file uses centimeters as units for non-parametric coordinates.

mtllib RampWall_R_LP.mtl
g default
v -3.000000 0.000000 3.000000
v -3.500000 0.000000 3.000000
v -4.000000 0.000000 3.000000
v -3.000000 1.000000 3.000000
v -3.500000 1.000000 3.000000
v -4.000000 0.500000 3.000000
v -3.000000 2.000224 0.000000
v -3.500000 2.000224 0.000000
v -4.000000 1.500224 0.000000
v -3.000000 0.000000 0.000000
v -3.500000 0.000000 0.000000
v -4.000000 0.000000 0.000000
vt 0.397397 0.016599
vt 0.306486 0.016599
vt 0.670129 0.016599
vt 0.579218 0.016599
vt 0.889606 0.016599
vt 0.798696 0.016599
vt 0.245173 0.333231
vt 0.245173 0.248948
vt 0.798695 0.488778
vt 0.980517 0.488778
vt 0.397397 0.488778
vt 0.889606 0.488778
vt 0.247454 0.045357
vt 0.247454 0.131390
vt 0.074569 0.045357
vt 0.074569 0.218788
vt 0.161148 0.218788
vt 0.161148 0.045357
vt 0.160661 0.417438
vt 0.076530 0.417438
vt 0.579218 0.488778
vt 0.076530 0.248948
vt 0.076530 0.333231
vt 0.670129 0.488778
vt 0.306486 0.488778
vt 0.980517 0.016599
vn 0.000000 0.000000 1.000000
vn 0.000000 0.000000 1.000000
vn 0.000000 0.000000 1.000000
vn 0.000000 0.000000 1.000000
vn 0.000000 0.000000 1.000000
vn 0.000000 0.000000 1.000000
vn 0.000000 0.948662 0.316291
vn 0.000000 0.948662 0.316291
vn -0.400927 0.869079 0.289758
vn -0.451566 0.846432 0.282207
vn -0.688239 0.688239 0.229464
vn -0.688239 0.688239 0.229464
vn 0.000000 0.000000 -1.000000
vn 0.000000 0.000000 -1.000000
vn 0.000000 0.000000 -1.000000
vn 0.000000 0.000000 -1.000000
vn 0.000000 0.000000 -1.000000
vn 0.000000 0.000000 -1.000000
vn 0.000000 -1.000000 0.000000
vn 0.000000 -1.000000 0.000000
vn 0.000000 -1.000000 0.000000
vn 0.000000 -1.000000 0.000000
vn 0.000000 -1.000000 0.000000
vn 0.000000 -1.000000 0.000000
vn -1.000000 0.000000 0.000000
vn -1.000000 0.000000 0.000000
vn -1.000000 0.000000 0.000000
vn -1.000000 0.000000 0.000000
vn 1.000000 0.000000 0.000000
vn 1.000000 0.000000 0.000000
vn 1.000000 0.000000 0.000000
vn 1.000000 0.000000 0.000000
s 1
g RampWall_R_LP
usemtl initialShadingGroup
f 1/15/1 4/16/2 5/17/3 2/18/4
f 2/18/4 5/17/3 6/14/5 3/13/6
s 2
f 4/4/7 7/21/8 8/24/9 5/3/10
f 5/3/10 8/24/9 9/9/11 6/6/12
s 3
f 7/8/13 10/22/14 11/23/15 8/7/16
f 8/7/16 11/23/15 12/20/17 9/19/18
s 4
f 10/11/19 1/1/20 2/2/21 11/25/22
f 11/10/22 2/26/21 3/5/23 12/12/24
s off
f 3/5/25 6/6/26 9/9/27 12/12/28
f 10/11/29 7/21/30 4/4/31 1/1/32
