# This file uses centimeters as units for non-parametric coordinates.

mtllib RampWall_R_HP.mtl
g default
v -5.826620 0.008249 2.971832
v -5.818371 0.028164 2.971836
v -5.826620 0.028164 2.991751
v -5.846535 0.028164 3.000000
v -5.846532 0.008249 2.991751
v -5.846535 0.000000 2.971836
v -6.318371 0.000000 2.971836
v -6.298456 0.000000 2.971836
v -6.298457 0.008249 2.991751
v -6.298456 0.028164 3.000000
v -6.318371 0.028164 3.000000
v -6.338286 0.028164 3.000000
v -6.338286 0.008249 2.991751
v -6.338286 0.000000 2.971836
v -6.810122 0.008249 2.971838
v -6.790207 0.000000 2.971836
v -6.790192 0.008249 2.991751
v -6.790207 0.028164 3.000000
v -6.810122 0.028164 2.991751
v -6.818371 0.028164 2.971836
v -5.826636 0.999786 2.974515
v -5.846756 1.007825 2.976529
v -5.846871 0.995277 2.993521
v -5.846978 0.975066 3.000000
v -5.826705 0.975791 2.991743
v -5.818371 0.980196 2.972522
v -6.317015 1.003843 2.976212
v -6.333737 0.992776 2.975577
v -6.335793 0.975750 2.993345
v -6.338305 0.944111 3.000000
v -6.318543 0.966446 3.000000
v -6.298267 0.975219 3.000000
v -6.297648 0.995295 2.993608
v -6.297037 1.007726 2.976828
v -6.814129 0.507101 2.972918
v -6.818371 0.486450 2.971646
v -6.809156 0.483228 2.991782
v -6.791401 0.492572 3.000000
v -6.796566 0.512450 2.993183
v -6.801989 0.524969 2.974245
v -5.826488 1.965089 0.008708
v -5.846160 1.966616 0.000000
v -5.845969 1.986312 0.009924
v -5.845785 1.989737 0.031452
v -5.826385 1.980946 0.030360
v -5.818371 1.959664 0.029232
v -6.318746 1.957055 0.000000
v -6.338629 1.933808 0.000000
v -6.336167 1.965062 0.009978
v -6.334044 1.974060 0.031466
v -6.317016 1.985537 0.031715
v -6.297169 1.989571 0.031952
v -6.297845 1.986159 0.010076
v -6.298522 1.966275 0.000000
v -6.809198 1.472903 0.008456
v -6.818371 1.466432 0.029520
v -6.814248 1.487788 0.030558
v -6.802475 1.505595 0.031566
v -6.797043 1.503132 0.009612
v -6.791654 1.483897 0.000000
v -5.826620 0.008249 0.028161
v -5.846535 0.000000 0.028164
v -5.846536 0.008249 0.008249
v -5.846535 0.028164 0.000000
v -5.826620 0.028164 0.008249
v -5.818371 0.028164 0.028164
v -6.318371 0.000000 0.028164
v -6.338286 0.000000 0.028164
v -6.338285 0.008249 0.008249
v -6.338286 0.028164 0.000000
v -6.318371 0.028164 0.000000
v -6.298456 0.028164 0.000000
v -6.298456 0.008249 0.008249
v -6.298456 0.000000 0.028164
v -6.810122 0.008249 0.028159
v -6.818371 0.028164 0.028164
v -6.810122 0.028164 0.008249
v -6.790207 0.028164 0.000000
v -6.790201 0.008249 0.008249
v -6.790207 0.000000 0.028164
v -5.830279 0.011909 2.988090
v -6.318370 0.008249 2.991751
v -6.806468 0.011910 2.988091
v -5.830372 0.992285 2.989353
v -6.317784 0.990029 2.993479
v -6.808708 0.500599 2.989006
v -5.830019 1.981570 0.013380
v -6.317894 1.980458 0.010029
v -6.808882 1.489948 0.013079
v -5.830280 0.011909 0.011908
v -6.318370 0.008249 0.008249
v -6.806463 0.011910 0.011908
vt 0.402518 0.021032
vt 0.079446 0.050241
vt 0.157699 0.050241
vt 0.164586 0.050214
vt 0.242593 0.050203
vt 0.575617 0.020924
vt 0.157667 0.214490
vt 0.584379 0.020293
vt 0.666250 0.020246
vt 0.242799 0.130139
vt 0.674080 0.020443
vt 0.794483 0.020652
vt 0.576417 0.484177
vt 0.400811 0.484346
vt 0.666274 0.483749
vt 0.242340 0.253632
vt 0.242311 0.329885
vt 0.794608 0.483809
vt 0.237857 0.336643
vt 0.887330 0.484346
vt 0.161548 0.412939
vt 0.078904 0.329874
vt 0.392276 0.484346
vt 0.310107 0.484346
vt 0.078109 0.412695
vt 0.976896 0.484346
vt 0.894727 0.484346
vt 0.079522 0.214463
vt 0.164589 0.209068
vt 0.584203 0.483828
vt 0.674159 0.483825
vt 0.078904 0.253695
vt 0.078109 0.336585
vt 0.392276 0.021032
vt 0.310108 0.021032
vt 0.976896 0.021032
vt 0.894727 0.021032
vt 0.884485 0.021031
vt 0.801159 0.021063
vt 0.800147 0.484132
vt 0.397394 0.021020
vt 0.074569 0.048370
vt 0.400556 0.016599
vt 0.394225 0.016599
vt 0.077590 0.045357
vt 0.306486 0.020007
vt 0.980517 0.020007
vt 0.157621 0.045357
vt 0.310189 0.016599
vt 0.161142 0.050206
vt 0.976813 0.016599
vt 0.164664 0.045357
vt 0.889603 0.021018
vt 0.244439 0.045357
vt 0.892782 0.016599
vt 0.886440 0.016599
vt 0.247454 0.048353
vt 0.579900 0.020885
vt 0.077629 0.218788
vt 0.582431 0.016599
vt 0.576058 0.016599
vt 0.074569 0.215773
vt 0.670213 0.020514
vt 0.164007 0.215893
vt 0.674387 0.016599
vt 0.161170 0.213010
vt 0.666258 0.016599
vt 0.157462 0.218788
vt 0.797888 0.020933
vt 0.247454 0.128299
vt 0.801962 0.016599
vt 0.795458 0.016599
vt 0.245281 0.133591
vt 0.243677 0.248948
vt 0.577605 0.488778
vt 0.582373 0.488778
vt 0.245173 0.251873
vt 0.580376 0.484295
vt 0.240693 0.333288
vt 0.674552 0.488778
vt 0.242265 0.336128
vt 0.670206 0.483968
vt 0.245173 0.329644
vt 0.666259 0.488778
vt 0.799781 0.488778
vt 0.159656 0.417438
vt 0.797373 0.484063
vt 0.162858 0.415249
vt 0.795353 0.488778
vt 0.396553 0.484359
vt 0.076530 0.251888
vt 0.394225 0.488778
vt 0.398970 0.488778
vt 0.077989 0.248948
vt 0.980517 0.485371
vt 0.306486 0.485371
vt 0.076530 0.336661
vt 0.976813 0.488778
vt 0.078501 0.333230
vt 0.310190 0.488778
vt 0.076530 0.329798
vt 0.891019 0.484359
vt 0.077500 0.417438
vt 0.888558 0.488778
vt 0.892779 0.488778
vt 0.076530 0.414499
vt 0.397397 0.016599
vt 0.074569 0.045357
vt 0.161148 0.045357
vt 0.980517 0.016599
vt 0.306486 0.016599
vt 0.889606 0.016599
vt 0.247454 0.045357
vt 0.579218 0.016599
vt 0.074569 0.218788
vt 0.161148 0.218788
vt 0.670129 0.016599
vt 0.798696 0.016599
vt 0.247454 0.131390
vt 0.245173 0.248948
vt 0.579218 0.488778
vt 0.670129 0.488778
vt 0.245173 0.333231
vt 0.798695 0.488778
vt 0.160661 0.417438
vt 0.397397 0.488778
vt 0.076530 0.248948
vt 0.076530 0.333231
vt 0.306486 0.488778
vt 0.980517 0.488778
vt 0.889606 0.488778
vt 0.076530 0.417438
vn 0.999982 -0.005641 0.001846
vn 0.923958 -0.382490 0.001721
vn 0.923958 -0.382489 -0.001722
vn 0.999978 -0.005618 -0.003672
vn 0.382486 -0.923960 0.001721
vn 0.017439 -0.999844 0.002743
vn 0.017442 -0.999844 -0.002743
vn 0.382485 -0.923960 -0.001722
vn 0.017387 -0.008408 0.999813
vn 0.379385 -0.005146 0.925224
vn 0.379206 0.004301 0.925302
vn 0.017709 0.006561 0.999822
vn 0.921041 -0.005451 0.389428
vn 0.999988 0.004048 0.002690
vn 0.920554 0.003658 0.390599
vn 0.010917 -0.924329 0.381439
vn -0.000000 -0.923880 0.382682
vn -0.000000 -0.999996 0.002784
vn 0.010915 -0.381441 0.924329
vn -0.000000 -0.008536 0.999964
vn -0.000000 -0.382683 0.923880
vn 0.000000 -0.999996 0.002783
vn 0.000000 -0.999996 -0.002783
vn 0.000000 -0.999996 -0.002783
vn 0.000000 -0.999996 0.002783
vn -0.000000 -0.999996 -0.002784
vn -0.000000 -0.011439 0.999935
vn 0.000000 -0.008616 0.999963
vn -0.006636 0.008560 0.999941
vn -0.023416 0.023380 0.999452
vn -0.000128 0.006682 0.999978
vn 0.000000 -0.923880 0.382682
vn -0.010904 -0.924327 0.381445
vn -0.017442 -0.999844 0.002742
vn -0.000000 -0.382682 0.923880
vn -0.011746 -0.011588 0.999864
vn -0.010904 -0.381444 0.924328
vn -0.382495 -0.923956 0.001724
vn -0.382496 -0.923956 -0.001723
vn -0.017444 -0.999844 -0.002742
vn -0.923959 -0.382488 0.001721
vn -0.999963 -0.008530 0.001433
vn -0.999955 -0.008471 -0.004402
vn -0.923959 -0.382489 -0.001722
vn -0.917326 -0.009646 0.398020
vn -0.916563 0.004539 0.399865
vn -0.999993 0.003028 0.002105
vn -0.398647 -0.011389 0.917034
vn -0.010343 0.004468 0.999937
vn -0.402204 0.003312 0.915544
vn 0.018266 0.947856 0.318176
vn 0.393865 0.871555 0.291998
vn 0.394140 0.872435 0.288982
vn 0.017095 0.949528 0.313218
vn 0.925369 0.359266 0.120910
vn 0.999965 0.007981 -0.002595
vn 0.925819 0.359334 0.117209
vn 0.011578 0.303037 0.952909
vn -0.003687 0.303665 0.952772
vn 0.011527 0.804703 0.593565
vn -0.008421 0.947957 0.318287
vn -0.009248 0.803551 0.595165
vn -0.684733 0.690966 0.231747
vn -0.380935 0.876498 0.294345
vn -0.359462 0.886371 0.291778
vn -0.683473 0.693430 0.228078
vn -0.008016 0.949672 0.313145
vn -0.234953 0.235029 0.943164
vn -0.238669 0.233609 0.942584
vn -0.597094 0.597538 0.535189
vn -0.693835 0.682233 0.230545
vn -0.602523 0.593377 0.533732
vn -0.929734 0.348745 0.118200
vn -0.906121 0.402017 0.131632
vn -0.999972 0.006212 -0.004312
vn -0.692225 0.685462 0.225758
vn 0.017147 0.005075 -0.999840
vn 0.393697 0.002957 -0.919236
vn 0.393373 -0.002554 -0.919375
vn 0.017889 -0.004147 -0.999831
vn 0.927494 0.003708 -0.373819
vn 0.927061 -0.002467 -0.374904
vn 0.011034 0.987967 -0.154274
vn -0.011266 0.987559 -0.156847
vn 0.011305 0.449573 -0.893172
vn -0.000107 0.005126 -0.999987
vn -0.006161 0.450072 -0.892971
vn -0.014867 0.014914 -0.999778
vn -0.005109 0.006451 -0.999966
vn 0.000000 -0.004225 -0.999991
vn 0.000000 -0.004816 -0.999988
vn 0.000000 -0.004210 -0.999991
vn -0.685965 0.689224 -0.233288
vn -0.690009 0.685122 -0.233444
vn -0.326801 0.327420 -0.886565
vn -0.009888 0.002808 -0.999947
vn -0.327874 0.324622 -0.887198
vn -0.920757 0.002910 -0.390126
vn -0.920508 -0.002884 -0.390713
vn -0.408242 0.001669 -0.912872
vn -0.015312 -0.004808 -0.999871
vn -0.406612 -0.003663 -0.913594
vn 0.010911 -0.381442 -0.924329
vn 0.000000 -0.382684 -0.923880
vn 0.010912 -0.924327 -0.381444
vn 0.000000 -0.923880 -0.382683
vn 0.000000 -0.382683 -0.923880
vn -0.010908 -0.381442 -0.924328
vn -0.000000 -0.923880 -0.382683
vn -0.010908 -0.924327 -0.381445
vn 0.325325 -0.887921 0.325207
vn 0.887936 -0.325279 0.325213
vn 0.325285 -0.325259 0.887917
vn 0.000000 -0.923879 0.382686
vn 0.000000 -0.382685 0.923879
vn -0.888006 -0.325136 0.325165
vn -0.325098 -0.887941 0.325380
vn -0.325090 -0.325345 0.887957
vn 0.865360 0.290614 0.408285
vn 0.325309 0.781864 0.531849
vn 0.323679 0.251779 0.912052
vn -0.381277 0.723927 0.574941
vn -0.149825 0.269161 0.951370
vn -0.836265 0.308167 0.453535
vn -0.474115 0.162786 0.865283
vn 0.918409 0.317085 -0.236605
vn 0.358050 0.377584 -0.853950
vn 0.361615 0.926591 -0.103260
vn -0.224335 0.393835 -0.891385
vn -0.442592 0.873766 -0.201606
vn -0.530424 0.244341 -0.811756
vn -0.878272 0.392836 -0.272612
vn 0.887915 -0.325262 -0.325287
vn 0.325236 -0.887918 -0.325306
vn 0.325232 -0.325242 -0.887943
vn 0.000000 -0.923881 -0.382680
vn 0.000000 -0.382681 -0.923881
vn -0.325174 -0.887921 -0.325359
vn -0.887945 -0.325202 -0.325267
vn -0.325180 -0.325263 -0.887954
s 1
g RampWall_R_HP
usemtl initialShadingGroup
f 2/1/1 1/41/2 61/90/3 66/14/4
s 2
f 1/41/5 6/34/6 62/23/7 61/90/8
s 3
f 4/2/9 3/42/10 25/62/11 24/28/12
s 1
f 3/43/13 2/1/1 26/6/14 25/61/15
s 2
f 6/34/6 5/44/16 9/49/17 8/35/18
s 3
f 5/45/19 4/2/9 10/3/20 9/48/21
s 2
f 8/35/18 7/46/22 67/96/23 74/24/24
f 7/47/22 14/36/25 68/26/26 67/95/23
s 3
f 12/4/27 11/50/28 31/66/29 30/29/30
f 11/50/28 10/3/20 32/7/31 31/66/29
s 2
f 14/36/25 13/51/32 17/55/33 16/37/34
s 3
f 13/52/35 12/4/27 18/5/36 17/54/37
s 2
f 16/37/34 15/53/38 75/102/39 80/27/40
s 5
f 15/53/41 20/38/42 76/20/43 75/102/44
f 20/38/42 19/56/45 37/71/46 36/39/47
s 3
f 19/57/48 18/5/36 38/10/49 37/70/50
s 5
f 22/8/51 21/58/52 45/78/53 44/30/54
s 1
f 21/58/55 26/6/14 46/13/56 45/78/57
s 3
f 24/28/12 23/59/58 33/68/59 32/7/31
s 5
f 23/60/60 22/8/51 34/9/61 33/67/62
f 28/11/63 27/63/64 51/82/65 50/31/66
f 27/63/64 34/9/61 52/15/67 51/82/65
s 3
f 30/29/30 29/64/68 39/73/69 38/10/49
s 5
f 29/65/70 28/11/63 40/12/71 39/72/72
f 36/39/47 35/69/73 57/87/74 56/40/75
f 35/69/73 40/12/71 58/18/76 57/87/74
s 8
f 42/16/77 41/74/78 65/94/79 64/32/80
s 1
f 41/75/81 46/13/56 66/14/4 65/93/82
s 5
f 44/30/54 43/76/83 53/84/84 52/15/67
s 8
f 43/77/85 42/16/77 54/17/86 53/83/87
f 48/19/88 47/79/89 71/99/90 70/33/91
f 47/79/89 54/17/86 72/22/92 71/99/90
s 5
f 50/31/66 49/80/93 59/89/94 58/18/76
s 8
f 49/81/95 48/19/88 60/21/96 59/88/97
s 5
f 56/40/75 55/85/98 77/104/99 76/20/43
s 8
f 55/86/100 60/21/96 78/25/101 77/103/102
f 64/32/80 63/91/103 73/101/104 72/22/92
s 2
f 63/92/105 62/23/7 74/24/24 73/100/106
s 8
f 70/33/91 69/97/107 79/106/108 78/25/101
s 2
f 69/98/109 68/26/26 80/27/40 79/105/110
s 3
f 4/2/9 24/28/12 32/7/31 10/3/20
f 12/4/27 30/29/30 38/10/49 18/5/36
s 5
f 22/8/51 44/30/54 52/15/67 34/9/61
f 28/11/63 50/31/66 58/18/76 40/12/71
s 8
f 42/16/77 64/32/80 72/22/92 54/17/86
f 48/19/88 70/33/91 78/25/101 60/21/96
s 2
f 62/23/7 6/34/6 8/35/18 74/24/24
f 68/26/26 14/36/25 16/37/34 80/27/40
s 5
f 20/38/42 36/39/47 56/40/75 76/20/43
s 1
f 66/14/4 46/13/56 26/6/14 2/1/1
s 2
f 5/44/16 6/34/6 1/41/5 81/107/111
s 1
f 1/41/2 2/1/1 3/43/13 81/107/112
s 3
f 3/42/10 4/2/9 5/45/19 81/108/113
s 2
f 13/51/32 14/36/25 7/47/22 82/110/114
f 7/46/22 8/35/18 9/49/17 82/111/114
s 3
f 9/48/21 10/3/20 11/50/28 82/109/115
f 11/50/28 12/4/27 13/52/35 82/109/115
s 5
f 19/56/45 20/38/42 15/53/41 83/112/116
s 2
f 15/53/38 16/37/34 17/55/33 83/112/117
s 3
f 17/54/37 18/5/36 19/57/48 83/113/118
s 1
f 25/61/15 26/6/14 21/58/55 84/114/119
s 5
f 21/58/52 22/8/51 23/60/60 84/114/120
s 3
f 23/59/58 24/28/12 25/62/11 84/115/121
s 5
f 33/67/62 34/9/61 27/63/64 85/117/122
f 27/63/64 28/11/63 29/65/70 85/117/122
s 3
f 29/64/68 30/29/30 31/66/29 85/116/123
f 31/66/29 32/7/31 33/68/59 85/116/123
s 5
f 39/72/72 40/12/71 35/69/73 86/118/124
f 35/69/73 36/39/47 37/71/46 86/118/124
s 3
f 37/70/50 38/10/49 39/73/69 86/119/125
s 1
f 45/78/57 46/13/56 41/75/81 87/121/126
s 8
f 41/74/78 42/16/77 43/77/85 87/120/127
s 5
f 43/76/83 44/30/54 45/78/53 87/121/128
s 8
f 53/83/87 54/17/86 47/79/89 88/123/129
f 47/79/89 48/19/88 49/81/95 88/123/129
s 5
f 49/80/93 50/31/66 51/82/65 88/122/130
f 51/82/65 52/15/67 53/84/84 88/122/130
s 8
f 59/88/97 60/21/96 55/86/100 89/125/131
s 5
f 55/85/98 56/40/75 57/87/74 89/124/132
f 57/87/74 58/18/76 59/89/94 89/124/132
s 1
f 65/93/82 66/14/4 61/90/3 90/126/133
s 2
f 61/90/8 62/23/7 63/92/105 90/126/134
s 8
f 63/91/103 64/32/80 65/94/79 90/127/135
s 2
f 73/100/106 74/24/24 67/96/23 91/129/136
f 67/95/23 68/26/26 69/98/109 91/130/136
s 8
f 69/97/107 70/33/91 71/99/90 91/128/137
f 71/99/90 72/22/92 73/101/104 91/128/137
s 2
f 79/105/110 80/27/40 75/102/39 92/131/138
s 5
f 75/102/44 76/20/43 77/104/99 92/131/139
s 8
f 77/103/102 78/25/101 79/106/108 92/132/140
