# This file uses centimeters as units for non-parametric coordinates.

mtllib Wall_LP.mtl
g default
v -1.000000 0.000000 0.000000
v -0.500000 0.000000 0.000000
v 0.000000 0.000000 0.000000
v -1.000000 1.000000 0.000000
v -0.500000 1.000000 0.000000
v 0.000000 0.500000 0.000000
v -1.000000 1.000000 -3.000000
v -0.500000 1.000000 -3.000000
v 0.000000 0.500000 -3.000000
v -1.000000 0.000000 -3.000000
v -0.500000 0.000000 -3.000000
v 0.000000 0.000000 -3.000000
vt 0.397397 0.016599
vt 0.306486 0.016599
vt 0.670129 0.016599
vt 0.579218 0.016599
vt 0.889606 0.016599
vt 0.798696 0.016599
vt 0.245173 0.333231
vt 0.245173 0.248948
vt 0.798695 0.488778
vt 0.980517 0.488778
vt 0.397397 0.488778
vt 0.889606 0.488778
vt 0.247454 0.045357
vt 0.247454 0.131390
vt 0.074569 0.045357
vt 0.074569 0.218788
vt 0.161148 0.218788
vt 0.161148 0.045357
vt 0.160661 0.417438
vt 0.076530 0.417438
vt 0.579218 0.488778
vt 0.076530 0.248948
vt 0.076530 0.333231
vt 0.670129 0.488778
vt 0.306486 0.488778
vt 0.980517 0.016599
vn 0.000000 0.000000 1.000000
vn 0.000000 0.000000 1.000000
vn 0.000000 0.000000 1.000000
vn 0.000000 0.000000 1.000000
vn 0.000000 0.000000 1.000000
vn 0.000000 0.000000 1.000000
vn 0.000000 1.000000 0.000000
vn 0.447214 0.894427 0.000000
vn 0.447214 0.894427 0.000000
vn 0.000000 1.000000 0.000000
vn 0.707107 0.707107 0.000000
vn 0.707107 0.707107 0.000000
vn 0.000000 0.000000 -1.000000
vn 0.000000 0.000000 -1.000000
vn 0.000000 0.000000 -1.000000
vn 0.000000 0.000000 -1.000000
vn 0.000000 0.000000 -1.000000
vn 0.000000 0.000000 -1.000000
vn 0.000000 -1.000000 0.000000
vn 0.000000 -1.000000 0.000000
vn 0.000000 -1.000000 0.000000
vn 0.000000 -1.000000 0.000000
vn 0.000000 -1.000000 0.000000
vn 0.000000 -1.000000 0.000000
vn 1.000000 0.000000 0.000000
vn 1.000000 0.000000 0.000000
vn 1.000000 0.000000 0.000000
vn 1.000000 0.000000 0.000000
vn -1.000000 0.000000 0.000000
vn -1.000000 0.000000 0.000000
vn -1.000000 0.000000 0.000000
vn -1.000000 0.000000 0.000000
s 1
g Wall
usemtl initialShadingGroup
f 1/15/1 2/18/2 5/17/3 4/16/4
f 2/18/2 3/13/5 6/14/6 5/17/3
s 2
f 4/4/7 5/3/8 8/24/9 7/21/10
f 5/3/8 6/6/11 9/9/12 8/24/9
s 3
f 7/8/13 8/7/14 11/23/15 10/22/16
f 8/7/14 9/19/17 12/20/18 11/23/15
s 4
f 10/11/19 11/25/20 2/2/21 1/1/22
f 11/10/20 12/12/23 3/5/24 2/26/21
s off
f 3/5/25 12/12/26 9/9/27 6/6/28
f 10/11/29 1/1/30 4/4/31 7/21/32
