# This file uses centimeters as units for non-parametric coordinates.

mtllib InsideCorner_LP.mtl
g default
v 3.000000 0.000000 -2.000000
v 3.000000 0.000000 -2.500000
v 3.000000 0.000000 -3.000000
v 3.000000 1.000000 -2.000000
v 3.000000 1.000000 -2.500000
v 3.000000 0.500000 -3.000000
v 0.000231 0.500648 -2.999583
v 0.000231 0.000000 -2.999583
v 1.004682 1.000000 -2.000462
v 0.501920 1.000000 -2.500462
v 1.004682 0.000000 -2.000462
v 0.501920 0.000000 -2.500462
v 1.000000 1.000000 0.000000
v 0.500000 1.000000 0.000000
v -0.000000 0.500000 0.000000
v 1.000000 0.000000 0.000000
v 0.500000 0.000000 0.000000
v -0.000000 0.000000 0.000000
vt 0.397397 0.512464
vt 0.306486 0.512464
vt 0.670129 0.512464
vt 0.579218 0.512464
vt 0.889606 0.512464
vt 0.798696 0.512464
vt 0.798481 0.984643
vt 0.889758 0.984643
vt 0.247454 0.541222
vt 0.247454 0.627255
vt 0.074569 0.541222
vt 0.074569 0.714653
vt 0.161148 0.714653
vt 0.161148 0.541222
vt 0.980517 0.512464
vt 0.579218 0.825776
vt 0.670129 0.905343
vt 0.397397 0.825776
vt 0.306486 0.905343
vt 0.980517 0.905343
vt 0.245173 0.248948
vt 0.245173 0.333231
vt 0.076530 0.333231
vt 0.076530 0.248948
vt 0.160661 0.417438
vt 0.076530 0.417438
vt 0.397397 0.488778
vt 0.306486 0.488778
vt 0.306486 0.095150
vt 0.397397 0.173847
vt 0.980517 0.488778
vt 0.889606 0.488778
vt 0.889690 0.016599
vt 0.980517 0.095150
vt 0.798695 0.488778
vt 0.798577 0.016599
vt 0.579218 0.173847
vt 0.579218 0.488778
vt 0.670129 0.095150
vt 0.670129 0.488778
vn 1.000000 0.000000 0.000000
vn 1.000000 0.000000 0.000000
vn 1.000000 0.000000 0.000000
vn 1.000000 0.000000 0.000000
vn 1.000000 0.000000 0.000000
vn 1.000000 0.000000 0.000000
vn 0.000000 1.000000 0.000000
vn 0.000061 0.876147 -0.482044
vn -0.338433 0.877767 -0.339100
vn 0.000000 1.000000 0.000000
vn 0.000089 0.707003 -0.707211
vn -0.408737 0.816773 -0.407205
vn -0.000139 0.000000 -1.000000
vn -0.000139 0.000000 -1.000000
vn -0.000139 0.000000 -1.000000
vn -0.000139 0.000000 -1.000000
vn 0.000000 -1.000000 0.000000
vn 0.000000 -1.000000 0.000000
vn 0.000000 -1.000000 0.000000
vn 0.000000 -1.000000 0.000000
vn 0.000000 -1.000000 0.000000
vn 0.000000 -1.000000 0.000000
vn 0.707107 0.000000 0.707107
vn 0.707107 0.000000 0.707107
vn -0.000232 0.000000 1.000000
vn -0.000232 0.000000 1.000000
vn 0.000000 0.000000 1.000000
vn 0.000000 0.000000 1.000000
vn 0.000000 0.000000 1.000000
vn 0.000000 0.000000 1.000000
vn 0.000000 0.000000 1.000000
vn 0.000000 0.000000 1.000000
vn 0.000000 -1.000000 0.000000
vn 0.000000 -1.000000 0.000000
vn 0.000000 -1.000000 0.000000
vn -1.000000 0.000000 -0.000077
vn -1.000000 0.000000 -0.000077
vn -1.000000 0.000000 -0.000077
vn -1.000000 0.000000 -0.000077
vn 0.999997 0.000000 0.002340
vn 0.999997 0.000000 0.002340
vn -0.480843 0.876807 -0.000131
vn 0.000000 1.000000 0.000000
vn -0.706232 0.707980 -0.000193
s 1
g InsideCorner
usemtl initialShadingGroup
f 1/11/1 2/14/2 5/13/3 4/12/4
f 2/14/2 3/9/5 6/10/6 5/13/3
s 2
f 4/4/7 5/3/8 10/17/9 9/16/10
f 5/3/8 6/6/11 7/7/12 10/17/9
s off
f 3/5/13 8/8/14 7/7/15 6/6/16
s 3
f 11/18/17 12/19/18 2/2/19 1/1/20
f 12/20/18 8/8/21 3/5/22 2/15/19
s 4
f 9/16/23 11/18/24 1/1/25 4/4/26
s 5
f 13/21/27 14/22/28 17/23/29 16/24/30
f 14/22/28 15/25/31 18/26/32 17/23/29
s 3
f 16/27/33 17/28/34 12/29/18 11/30/17
f 17/31/34 18/32/35 8/33/21 12/34/18
s off
f 8/33/36 18/32/37 15/35/38 7/36/39
s 4
f 16/27/40 11/30/24 9/37/23 13/38/41
s 2
f 9/37/10 10/39/9 14/40/42 13/38/43
f 10/39/9 7/36/12 15/35/44 14/40/42
