# This file uses centimeters as units for non-parametric coordinates.

mtllib Pyramid.mtl
g default
v -1.554186 -0.098975 -1.554186
v -1.554186 -0.098975 1.554186
v 1.554186 -0.098975 1.554186
v 1.554186 -0.098975 -1.554186
v 0.000000 2.098975 -0.000000
vt 0.746050 0.053669
vt 0.764386 0.606557
vt 0.012767 0.612198
vt 0.644638 0.294852
vt 0.366645 0.612198
vt 0.008035 0.408048
vt 0.189706 0.966077
vt 0.998517 0.294852
vt 0.392172 0.053669
vt 0.410507 0.606557
vt 0.388302 0.408048
vt 0.821578 0.648731
vt 0.388302 0.027781
vt 0.569111 0.407547
vt 0.008035 0.027781
vt 0.587447 0.960436
vn -0.000000 -1.000000 -0.000000
vn -0.000000 -1.000000 -0.000000
vn -0.000000 -1.000000 -0.000000
vn -0.000000 -1.000000 -0.000000
vn -0.816497 0.577350 -0.000000
vn -0.816497 0.577350 -0.000000
vn -0.816497 0.577350 -0.000000
vn -0.000000 0.577350 0.816497
vn -0.000000 0.577350 0.816497
vn -0.000000 0.577350 0.816497
vn 0.816497 0.577350 0.000000
vn 0.816497 0.577350 0.000000
vn 0.816497 0.577350 0.000000
vn 0.000000 0.577350 -0.816497
vn 0.000000 0.577350 -0.816497
vn 0.000000 0.577350 -0.816497
s off
g pPyramid1
usemtl initialShadingGroup
f 1/6/1 4/11/2 3/13/3 2/15/4
f 1/1/5 2/9/6 5/14/7
f 2/4/8 3/8/9 5/12/10
f 3/3/11 4/5/12 5/7/13
f 4/2/14 1/10/15 5/16/16
